<svg xmlns="http://www.w3.org/2000/svg" viewBox="0 0 1024 1024" fill="currentColor"><path d="m 257.96239,1015.4083 c -47.99074,-9.1734 -84.25574,-43.12974 -95.86411,-89.76127 -4.71637,-18.94598 -4.98235,-47.73104 -0.61068,-66.08919 0.60786,-2.5526 -0.0503,-2.61828 -26.59004,-2.65327 -24.14297,-0.0318 -28.45853,-0.37208 -38.24979,-3.01569 C 51.677287,841.74697 20.007467,808.3983 10.063139,762.71429 7.5050682,750.96257 7.8341789,721.64306 10.658085,709.71207 21.3493,664.54178 55.14248,630.44275 101.75331,617.79241 c 8.6673,-2.35235 15.46442,-2.78724 56.31574,-3.60324 41.12756,-0.82151 47.932,-1.26102 59.29765,-3.83015 30.82116,-6.96693 51.8957,-18.48741 75.15546,-41.084 7.5494,-7.33414 34.84855,-35.16602 60.66478,-61.84861 25.81624,-26.68258 48.27546,-49.1708 49.90938,-49.9738 2.53422,-1.24547 92.8161,-26.46321 115.19149,-32.17555 4.13875,-1.0566 7.52501,-1.41439 7.52501,-0.79508 0,1.01018 -27.22378,60.66316 -44.37771,97.24082 -3.6638,7.81241 -6.66147,14.73215 -6.66147,15.37719 0,0.64504 1.48352,1.17281 3.2967,1.17281 3.64999,0 44.24051,7.24722 52.00723,9.28562 4.12061,1.08146 4.82342,1.76032 4.32963,4.18206 -0.3242,1.59006 -0.92765,6.42451 -1.34095,10.74321 -0.41331,4.3187 -2.50584,24.93067 -4.65006,45.80439 -2.1442,20.8737 -3.87559,39.13003 -3.84749,40.5696 0.0768,3.9376 2.86601,-1.75633 32.05293,-65.43485 l 26.39289,-57.58265 -3.40845,-1.60538 c -1.87464,-0.88295 -11.30266,-4.83145 -20.95117,-8.77447 -9.64851,-3.94299 -18.06844,-7.69479 -18.71097,-8.33732 -1.26878,-1.26878 0.22892,-4.82314 25.75149,-61.11332 17.74363,-39.13373 19.90631,-43.32038 33.63252,-65.10766 4.8748,-7.73768 8.17079,-14.0685 7.32443,-14.0685 -0.84635,0 -14.81741,2.36435 -31.0468,5.25411 -16.22937,2.88977 -41.28623,7.33159 -55.68189,9.87074 -14.39566,2.53912 -30.44356,5.38045 -35.66198,6.31405 -5.21843,0.93358 -9.48806,1.37943 -9.48806,0.99075 0,-0.38868 10.20888,-11.0418 22.68637,-23.67361 50.25652,-50.87804 88.1547,-90.33066 97.49003,-101.48873 17.3597,-20.74922 25.63567,-35.46288 32.54735,-57.86523 3.52078,-11.41169 3.5478,-11.79693 3.6959,-52.71965 0.12394,-34.22272 0.54252,-43.00203 2.4651,-51.69352 7.04024,-31.8272 24.58304,-57.38309 51.38154,-74.851233 22.13911,-14.431012 39.53011,-19.4530176 66.52306,-19.2099276 21.77541,0.196109 32.99943,2.7308446 51.03918,11.5262936 32.87248,16.027269 56.56243,45.00909 65.57311,80.220882 3.76421,14.709705 5.35564,38.891675 3.51848,53.463815 l -1.16888,9.27154 24.27565,-0.0532 c 19.57783,-0.0428 26.04846,0.41572 33.43653,2.36944 45.57754,12.05259 79.00844,45.53126 89.19164,89.31906 3.4724,14.93101 3.167,40.44973 -0.6703,56.026 -9.3914,38.12101 -39.27677,70.26033 -77.21809,83.04184 -17.21966,5.80087 -25.9474,6.89197 -63.65113,7.95727 -30.27475,0.85541 -38.51584,1.5057 -47.41628,3.74156 -23.111,5.80568 -40.96342,14.753 -59.89684,30.01931 -10.72887,8.65084 -193.17412,190.01681 -274.05073,272.42952 -31.07033,31.66046 -58.34697,60.58447 -61.45409,65.16561 -7.888,11.63004 -15.40228,27.93902 -18.51481,40.18448 -4.00912,15.77302 -5.20557,31.00664 -4.98504,63.4718 0.22171,32.63892 -0.82655,40.51228 -8.03553,60.35405 -13.57855,37.37314 -45.80872,66.52125 -84.62912,76.53615 -16.12299,4.1594 -44.29046,5.4026 -58.94435,2.6016 z"/></svg>