<svg xmlns="http://www.w3.org/2000/svg" viewBox="0 0 1024 1024" fill="currentColor"><path d="m 371.48489,1000.8487 c -27.11397,-4.93594 -53.3595,-18.65735 -71.10112,-37.17237 -6.17441,-6.44354 -7.50165,-7.11065 -18.68634,-9.39215 -45.33363,-9.24733 -87.18847,-41.98784 -111.20838,-86.99159 -6.06069,-11.35533 -13.07429,-30.10484 -16.17045,-43.2286 -1.61244,-6.83466 -2.4644,-8.00316 -7.82097,-10.72668 -37.80937,-19.224 -68.021053,-60.28861 -78.611449,-106.851 -4.948366,-21.75629 -5.567053,-53.35216 -1.434005,-73.23242 l 2.038019,-9.80305 -7.874533,-10.46748 C 47.788207,595.93205 38.380134,574.00337 33.666657,550.16966 30.641725,534.87403 30.981286,496.59518 34.277594,481.2987 40.672142,451.62484 52.915279,427.14644 71.572891,406.73204 l 7.480545,-8.18491 -1.708008,-7.64214 c -2.978677,-13.32741 -3.42606,-43.73713 -0.887378,-60.31668 6.732164,-43.96623 30.20492,-81.82274 64.4829,-103.99705 9.65341,-6.24474 10.13363,-6.82573 11.12626,-13.4606 3.1598,-21.12046 16.69153,-50.56398 32.06502,-69.76986 25.87934,-32.33069 62.83473,-53.691337 107.3069,-62.024674 12.61477,-2.363793 12.76519,-2.4434 20.59195,-10.897244 10.87455,-11.745813 25.18395,-22.011946 41.27338,-29.611169 19.35628,-9.142182 33.28969,-12.555543 54.98425,-13.469873 15.62329,-0.65844 19.75183,-0.331157 29.47621,2.336696 6.21953,1.706295 14.62043,4.780777 18.66866,6.832163 15.44131,7.824722 26.88614,23.838733 29.98048,41.949805 2.11066,12.353673 3.39333,465.313886 1.90905,674.158366 -1.33058,187.21736 -0.64818,174.98534 -10.97124,196.65976 -12.50875,26.26354 -31.68307,42.2861 -59.10879,49.39282 -10.73192,2.78095 -36.74844,3.98345 -46.75819,2.16125 z M 320.08995,883.28569 c 2.75878,-2.17005 4.10397,-5.2568 5.48837,-12.59386 4.41312,-23.38863 22.05205,-46.11345 43.72861,-56.33706 13.74144,-6.48106 24.4608,-9.17481 40.91754,-10.28246 21.328,-1.43554 27.12309,-4.5214 27.01945,-14.38777 -0.11495,-10.94774 -7.86308,-13.44848 -31.55148,-10.18341 -41.21247,5.68048 -71.89341,23.83588 -91.47266,54.12879 -6.46766,10.00672 -12.29658,26.68644 -12.49633,35.7588 -0.29308,13.31072 9.59766,20.79453 18.3665,13.89697 z m -74.08737,-101.5421 c 2.36567,-1.86084 4.43621,-5.95972 6.08215,-12.04028 6.25563,-23.11018 23.77458,-44.67316 45.45831,-55.95185 16.08819,-8.36818 30.55514,-11.93511 52.59202,-12.96696 16.31077,-0.76372 18.39369,-1.1709 21.40761,-4.18482 3.28397,-3.28397 4.32302,-9.37658 2.43722,-14.29092 -2.60764,-6.7954 -21.90458,-8.62711 -46.21828,-4.38715 -43.38106,7.56501 -76.99912,31.32524 -94.66114,66.90359 -9.79039,19.72175 -10.27142,31.52975 -1.50222,36.87653 5.91091,3.60403 9.86117,3.61551 14.40433,0.0418 z M 166.2419,674.41594 c 34.76103,-10.1155 62.748,-35.14024 75.11617,-67.16564 2.36484,-6.12339 4.71445,-14.66225 5.22137,-18.97525 l 0.92165,-7.84182 8.17553,-1.70202 c 12.30717,-2.56216 33.01206,-13.34727 42.90191,-22.34747 l 8.60187,-7.82807 4.0515,8.06382 c 13.2865,26.44452 45.53817,50.05638 80.52629,58.95431 15.38577,3.9128 37.40934,6.01701 46.03677,4.39849 9.33162,-1.75062 13.31906,-8.93145 9.55138,-17.20063 -2.60598,-5.71951 -6.97228,-7.22694 -24.50575,-8.46047 -27.04731,-1.90286 -46.86582,-8.68822 -64.83981,-22.19952 -44.99922,-33.82652 -39.10991,-96.94095 11.30557,-121.15929 16.30687,-7.83341 27.27193,-10.39354 50.54008,-11.80015 10.79138,-0.65236 20.78779,-1.65416 22.21426,-2.22623 3.02896,-1.21475 6.84029,-7.98253 6.84029,-12.14629 0,-1.59162 -1.57863,-4.72635 -3.50806,-6.96605 -3.48061,-4.04032 -3.64246,-4.07184 -20.68193,-4.02942 -33.83093,0.0842 -62.97601,10.56861 -87.97348,31.64679 -14.49599,12.2232 -26.16355,31.55719 -32.98986,54.66658 -1.76847,5.98688 -4.8404,14.09681 -6.82649,18.02206 -4.4648,8.82406 -16.44908,21.68467 -24.72855,26.53675 -6.71342,3.93433 -25.1519,10.59301 -29.33298,10.59301 -1.64547,0 -4.6025,-3.50278 -8.20632,-9.72093 -17.89788,-30.88155 -56.37276,-55.5678 -96.83298,-62.12998 -22.61783,-3.66834 -30.92929,-2.55213 -34.18384,4.59083 -2.65067,5.81759 -1.8764,10.6152 2.40396,14.89556 3.53741,3.5374 5.50013,4.13585 16.48862,5.02744 49.83726,4.04378 85.03454,29.16994 91.3054,65.17988 4.55684,26.16723 -9.92094,54.53961 -35.21485,69.01133 -9.96708,5.70259 -27.71871,10.38723 -39.36055,10.38723 -11.0808,0 -15.46354,3.39415 -15.46354,11.97554 0,4.38575 1.00461,6.6687 4.45117,10.11527 4.42633,4.42634 4.51745,4.44625 16.32784,3.5673 6.53218,-0.48612 16.28248,-2.16595 21.66736,-3.73296 z m 67.85728,-257.68196 c 5.18863,-1.1203 14.20667,-3.6693 20.0401,-5.66447 32.30288,-11.04836 60.99625,-38.13593 72.39996,-68.34818 l 4.07562,-10.79765 8.8586,-1.54897 c 13.54673,-2.36872 22.34082,-5.38151 26.14789,-8.95806 6.47149,-6.07965 3.13727,-18.70448 -4.93984,-18.70448 -2.13168,0 -9.01319,1.10397 -15.29222,2.45327 -34.27838,7.36606 -71.55085,-11.62549 -89.12988,-45.41463 -6.24333,-12.00045 -13.45205,-34.11566 -13.45205,-41.26872 0,-2.27229 -1.66499,-6.0591 -3.75742,-8.54582 -7.60086,-9.03313 -21.75126,-4.24682 -23.27729,7.8734 -0.97351,7.73214 5.2558,31.70946 11.84029,45.57453 14.0105,29.50208 40.33056,53.61496 67.50284,61.84208 4.75686,1.44026 8.64885,3.39804 8.64885,4.35063 0,3.97214 -15.8961,27.62723 -24.1726,35.97142 -10.55698,10.64332 -20.98118,17.22775 -35.57336,22.46987 -9.31484,3.34628 -12.9124,3.82938 -28.78723,3.86568 -13.50753,0.0309 -20.55199,-0.65304 -27.57591,-2.67732 -16.20293,-4.66962 -18.21602,-4.64165 -23.17959,0.32193 -3.42433,3.42433 -4.39631,5.67598 -4.39631,10.18438 0,9.16015 5.57958,12.80237 26.85022,17.52723 9.14028,2.03034 36.796,1.73359 47.16933,-0.50612 z M 449.69263,230.93564 c 4.29025,-4.29024 4.76657,-12.05013 1.02256,-16.65881 -2.0866,-2.56847 -5.45029,-3.50682 -18.84736,-5.25778 -18.55813,-2.42549 -35.49866,-7.39443 -46.12319,-13.52872 -16.68734,-9.63475 -30.32168,-25.75721 -36.79421,-43.50872 -1.77379,-4.86478 -4.64763,-9.84146 -6.38632,-11.05929 -4.79081,-3.35561 -10.828,-2.74174 -15.10569,1.53595 -3.31657,3.31657 -3.65371,4.56477 -2.91579,10.7953 1.79722,15.17476 14.29361,36.7767 28.94442,50.03493 20.89935,18.91281 52.09179,30.84357 81.3291,31.10747 10.14958,0.0916 11.68071,-0.26454 14.87648,-3.46033 z M 597.66575,999.99549 C 582.09771,996.92896 564.87114,987.72257 553.93648,976.62523 543.2386,965.76818 533.4647,947.48621 528.46202,928.97554 l -3.13795,-11.61091 -1.26408,-413.63861 C 523.20387,223.58283 523.27354,87.323 524.27585,81.521813 c 1.97182,-11.412478 8.64792,-25.313551 15.97409,-33.261508 26.21071,-28.435259 87.17925,-28.508045 134.96887,-0.161115 6.63483,3.935517 17.69763,12.446385 24.58399,18.913037 l 12.52067,11.75754 15.9074,3.195525 c 19.54698,3.926635 41.18696,12.234123 58.04257,22.282278 13.89829,8.2852 33.58005,25.77786 43.47088,38.63579 14.82836,19.27671 27.75011,46.997 31.5691,67.72337 l 1.7664,9.58656 9.52659,6.2505 c 32.6983,21.45372 56.66204,58.56867 64.88183,100.48875 3.16912,16.1623 3.18168,49.49045 0.0234,62.09312 l -2.17164,8.66556 4.31712,5.1224 c 11.74769,13.93901 21.61478,28.32555 26.99417,39.35835 26.32405,53.98901 19.98721,126.66691 -14.85292,170.34979 -4.43182,5.55666 -7.72677,10.96585 -7.3221,12.02042 6.49847,16.9347 8.12204,57.39025 3.21852,80.19769 -7.33495,34.11661 -21.14801,59.79619 -44.61471,82.94231 -11.48607,11.32917 -34.02689,27.36132 -38.46934,27.36132 -0.92325,0 -2.81544,4.73507 -4.20485,10.52239 -3.24246,13.5058 -11.14226,34.1155 -17.56109,45.81484 -14.72273,26.83459 -41.0724,53.2204 -67.38698,67.47939 -11.79562,6.39165 -30.97304,13.09725 -44.26659,15.47832 -9.38473,1.68094 -10.82367,2.4527 -18.86772,10.11945 -22.3934,21.34307 -42.24545,31.41001 -70.39114,35.69521 -16.76181,2.552 -30.76363,2.5021 -44.26658,-0.15761 z M 674.6863,839.71668 c 36.25061,-58.74744 70.29284,-115.16165 70.29284,-116.48808 0,-1.54908 -29.50815,-48.76323 -48.88035,-78.21036 -6.6423,-10.09679 -12.07691,-18.67703 -12.07691,-19.06723 0,-0.3902 20.56148,-17.15439 45.69219,-37.25379 25.1307,-20.09938 46.06218,-37.14301 46.5144,-37.8747 0.4522,-0.73169 -8.18996,-12.20115 -19.20481,-25.48768 -11.01486,-13.28654 -19.93516,-25.2167 -19.82288,-26.51149 0.11234,-1.29478 6.45373,-19.77367 14.09214,-41.0642 12.4417,-34.67879 15.29219,-41.14092 27.37176,-62.05219 17.54176,-30.36701 25.6634,-45.09979 24.86187,-45.09979 -1.09399,0 -29.41916,23.00246 -45.25515,36.75105 l -15.00933,13.03091 -33.24851,-5.569 c -18.28667,-3.06296 -33.2485,-6.17597 -33.2485,-6.91782 0,-0.74187 4.57179,-18.87665 10.15954,-40.29955 5.58775,-21.42288 10.15955,-39.97679 10.15955,-41.23089 0,-1.25409 -1.78962,-2.96059 -3.97694,-3.79221 -9.04937,-3.44057 -57.07934,-24.98309 -57.55678,-25.8155 -0.63011,-1.09862 19.77481,-55.29877 27.70171,-73.5821 3.14145,-7.24569 11.0145,-21.28763 17.49569,-31.20432 13.41408,-20.52451 14.79218,-24.10286 10.98301,-28.51836 -5.73623,-6.64928 -8.35497,-5.85371 -21.01122,6.38314 -19.86973,19.21132 -35.57377,38.93463 -42.55882,53.45125 -11.48871,23.87633 -43.09353,93.83555 -42.59588,94.2886 0.26946,0.24533 9.63351,4.37134 20.80901,9.16893 25.89155,11.11513 44.8695,19.43714 45.42972,19.92138 0.37106,0.32072 -17.47954,69.1825 -23.68525,91.37002 -1.1082,3.96218 -1.88226,7.33135 -1.72014,7.48705 0.16212,0.1557 16.29604,2.6919 35.85316,5.63601 19.55713,2.9441 38.49742,5.81708 42.08955,6.38438 3.59212,0.5673 6.42733,1.64701 6.30047,2.39936 -0.50736,3.00864 -18.26676,65.14452 -20.12322,70.40628 l -1.98889,5.63711 14.53973,19.83648 c 11.85394,16.17227 14.18565,20.16591 12.62276,21.61979 -2.91747,2.714 -65.95981,54.13354 -76.43471,62.34281 l -9.20453,7.21368 4.12567,3.37284 c 4.64422,3.79675 24.20319,17.1565 26.29492,17.96073 0.74837,0.28773 9.68505,14.23854 19.8593,31.00179 10.17424,16.76325 20.71802,33.89744 23.43061,38.07597 2.71258,4.17852 4.93198,8.42859 4.93198,9.44459 0,1.016 -8.53839,24.0483 -18.9742,51.18289 -15.73933,40.92449 -25.50777,66.96021 -32.66855,87.07108 -2.05168,5.76209 2.06189,-0.16284 17.63399,-25.39886 z"/></svg>