<svg xmlns="http://www.w3.org/2000/svg" viewBox="0 0 994.66669 1189.3333" fill="currentColor"><path d="m 492.70516,1184.0179 c -4.12452,-2.1584 -20.43076,-11.8965 -28.66667,-17.1198 -2.56667,-1.6278 -10.36667,-6.4423 -17.33333,-10.6989 -6.96667,-4.2566 -15.66667,-9.6431 -19.33334,-11.9701 -3.66666,-2.327 -12.06666,-7.1131 -18.66666,-10.6358 -6.60001,-3.5227 -13.80001,-7.6988 -16.00001,-9.2802 -2.2,-1.5815 -8.5,-5.4946 -14,-8.6958 -5.49999,-3.2013 -13.59999,-8.0449 -17.99999,-10.7635 -4.4,-2.7186 -13.7,-8.1265 -20.66666,-12.0175 -6.96667,-3.8911 -15.06667,-8.7419 -18,-10.7795 -2.93334,-2.0376 -14.63334,-9.0983 -26,-15.6904 -11.36667,-6.5921 -23.96668,-14.0493 -28.00001,-16.5715 -12.2431,-7.6561 -53.41498,-32.1421 -63.06892,-37.5088 -4.98791,-2.7727 -8.88791,-5.2172 -8.66667,-5.4322 0.54851,-0.533 12.76953,-4.9562 35.06893,-12.69275 10.26666,-3.5619 28.26667,-9.8778 39.99999,-14.0354 11.73333,-4.1576 26.13334,-9.0766 32.00001,-10.931 5.86667,-1.8544 11.98543,-4.5581 13.59724,-6.0081 4.08567,-3.6755 26.1538,-35.64332 74.14982,-107.41314 8.01015,-11.97781 14.98978,-21.27781 15.51028,-20.66667 0.5205,0.61115 3.19728,10.41118 5.9484,21.77784 6.1682,25.48482 10.06306,38.66667 11.42488,38.66667 0.57066,0 4.26222,-1.41874 8.20347,-3.15275 13.70239,-6.02857 12.00285,-6.93645 21.1234,11.28389 4.47497,8.93975 7.91526,16.91741 7.64509,17.72814 -0.30612,0.91862 -4.97101,1.51367 -12.38024,1.57921 -10.25779,0.0907 -12.8842,0.61452 -19.14237,3.81752 -13.65465,6.9886 -21.33754,18.35079 -23.26776,34.41069 l -0.7612,6.3333 H 416.064 c 9.82154,0 10.64116,-0.2095 10.64116,-2.7198 0,-4.7626 5.09196,-12.9135 9.93824,-15.9087 3.95473,-2.4442 7.40319,-3.018 22.05188,-3.6695 l 17.36406,-0.7723 5.75063,-6.7982 c 3.16284,-3.73898 6.19549,-7.5513 6.73922,-8.47179 1.09478,-1.85336 -31.56644,-69.65971 -33.55395,-69.65971 -0.66327,0 -4.62747,1.17717 -8.80933,2.61594 -5.65139,1.94437 -7.75929,2.20109 -8.2107,1 -1.10026,-2.92754 -8.54967,-31.84122 -14.93288,-57.95958 -3.45505,-14.13711 -6.88847,-25.50693 -7.63959,-25.29861 -0.75034,0.20809 -11.68569,15.96273 -24.30079,35.0103 -12.6151,19.04757 -24.01509,36.11369 -25.33333,37.92471 -1.31823,1.81102 -11.73087,17.11102 -23.1392,34 -28.68699,42.46846 -36.15384,53.12034 -38.53538,54.97284 -3.803,2.9581 -80.99548,30.606 -82.13531,29.4182 -0.65452,-0.682 53.78537,-88.99355 59.77506,-96.96612 1.75541,-2.33653 6.76495,-4.71777 17.38534,-8.26397 8.20565,-2.73991 16.22329,-5.01286 17.81697,-5.05101 2.09251,-0.0501 4.65472,-2.75524 9.2216,-9.73603 3.4782,-5.31667 8.92428,-13.64736 12.1024,-18.51265 3.17812,-4.86529 5.7784,-9.54392 5.7784,-10.39695 0,-1.05579 -2.65636,-1.42424 -8.31995,-1.15403 -7.1024,0.33887 -8.39093,0.7872 -8.80503,3.06363 -0.95758,5.26402 -12.83659,23.62575 -16.08844,24.86835 -1.76737,0.67536 -10.16336,3.26801 -18.65774,5.76146 -18.15938,5.33051 -16.28099,3.50582 -34.28066,33.30053 -7.06523,11.69502 -15.99877,26.09502 -19.8523,32 -3.85352,5.90497 -10.25851,16.13632 -14.2333,22.73629 -12.87838,21.3841 -17.7119,28.9898 -20.42925,32.1459 -2.38261,2.7674 -20.79111,9.8893 -30.20423,11.6856 -1.72101,0.3284 -4.17912,1.0149 -5.46245,1.5255 -1.28333,0.5106 -2.33333,0.545 -2.33333,0.077 0,-1.0188 20.62429,-36.5822 33.69399,-58.10011 5.12231,-8.43333 14.42569,-24.03333 20.67418,-34.66666 6.2485,-10.63334 13.86525,-23.23334 16.92613,-28 12.85138,-20.01331 16.70571,-26.22666 16.70571,-26.93037 0,-0.99192 -7.17815,2.1632 -23.32776,10.25361 l -13.32775,6.67676 -13.84687,22.66666 c -7.61578,12.46667 -20.74404,34.36667 -29.17393,48.66667 -15.82234,26.84014 -28.24381,46.66664 -29.2371,46.66664 -0.75923,0 -24.69687,-14.0479 -33.0866,-19.417 -3.66667,-2.3465 -21.66667,-13.1436 -40,-23.99354 -18.33334,-10.84996 -36.63334,-21.92362 -40.66667,-24.60815 -4.03333,-2.68452 -10.90936,-6.82741 -15.28006,-9.20641 -4.37071,-2.37901 -9.6207097,-5.51744 -11.6666697,-6.9743 l -3.71994,-2.64886 V 599.32885 309.95461 l 3.78869,-3.53494 c 2.08378,-1.94422 5.52889,-4.43495 7.6557997,-5.53495 2.12691,-1.1 11.072,-6.53318 19.87798,-12.07373 8.80598,-5.54056 19.31087,-12.01033 23.3442,-14.37728 4.03333,-2.36695 8.48966,-5.03377 9.90295,-5.92627 1.41329,-0.89249 8.31329,-5.26494 15.33333,-9.71654 12.75075,-8.08561 40.18951,-24.72715 47.07331,-28.54986 2.00361,-1.11264 11.51291,-6.82298 21.13179,-12.68965 9.61888,-5.86666 18.49438,-11.26666 19.72335,-12 1.22896,-0.73333 10.61965,-6.50275 20.86822,-12.82094 10.24855,-6.31819 25.45373,-15.61818 33.78929,-20.66667 8.33557,-5.04848 17.10949,-10.37905 19.49762,-11.84572 2.38813,-1.46666 7.48329,-4.46666 11.32258,-6.66666 3.83929,-2.2 11.39107,-6.82204 16.78175,-10.27119 5.39068,-3.44916 11.77551,-7.27163 14.18853,-8.49439 4.3123,-2.18519 21.94424,-12.89878 35.05396,-21.29962 3.66667,-2.34964 18.05395,-11.02972 31.97175,-19.289083 13.9178,-8.25935 26.81779,-16.05921 28.66666,-17.33302 1.84887,-1.27381 12.96158,-8.01982 24.69491,-14.99112 11.73334,-6.9713 26.43334,-15.82479 32.66667,-19.67443 6.23334,-3.84963 17.93334,-10.91444 26,-15.699576 8.06667,-4.785135 19.12546,-11.567903 24.57509,-15.072817 l 9.90843,-6.3725709 7.95794,5.5822419 c 4.37686,3.070234 12.09314,7.982243 17.14728,10.915576 5.05414,2.933333 18.31428,10.908103 29.46697,17.721706 11.1527,6.81361 21.17763,12.93746 22.27763,13.60855 1.1,0.67109 8.3,4.949 16,9.50645 7.7,4.55746 20.14351,12.08361 27.65226,16.72479 7.50874,4.64117 14.01611,8.4385 14.46084,8.4385 0.44472,0 2.69276,1.35 4.99564,3 2.30288,1.65 5.39551,3.63668 6.87249,4.41484 1.47699,0.77817 9.48045,5.578173 17.78547,10.666673 8.30501,5.0885 20.24265,12.401 26.52808,16.25 6.28543,3.849 16.35388,9.68325 22.37433,12.965 6.02045,3.28175 11.70628,6.88257 12.63518,8.00182 0.92889,1.11925 2.13945,2.035 2.69012,2.035 0.55067,0 5.63711,2.85 11.3032,6.33333 5.66609,3.48334 12.33503,7.53334 14.81986,9 2.48484,1.46667 10.87415,6.56667 18.64291,11.33333 16.19898,9.93919 14.45,8.88375 31.90648,19.25424 7.33323,4.3565 14.83314,9.06101 16.66648,10.45446 1.83333,1.39345 5.13333,3.39509 7.33333,4.44809 2.2,1.05301 5.2,2.65415 6.66667,3.55811 2.47931,1.52808 13.55747,8.29228 38,23.20238 21.24036,12.95675 49.75067,30.52024 53.12901,32.72959 1.94571,1.27244 4.73766,2.92119 6.20432,3.66387 1.46667,0.74268 6.56667,3.81812 11.33334,6.83431 4.76666,3.01619 14.66666,9.0851 22,13.48647 7.33333,4.40137 17.08333,10.44886 21.66666,13.43888 l 8.33334,5.43639 -0.0487,290.74658 -0.0487,290.74659 -5.61798,3.43305 c -3.08989,1.88818 -11.61799,6.945 -18.95132,11.23737 -15.22752,8.91303 -42.71058,25.47809 -68,40.98608 -9.53334,5.8461 -29.93334,18.1404 -45.33334,27.3208 -15.4,9.1804 -33.7,20.1571 -40.66666,24.3926 -6.96667,4.23545 -17.46667,10.37195 -23.33334,13.63665 -10.29476,5.7288 -28.46574,16.5488 -60.66667,36.1241 -8.43333,5.1267 -23.43333,14.0998 -33.33333,19.9402 -9.9,5.8404 -20.4,12.1887 -23.33333,14.1073 -2.93334,1.9187 -6.29749,3.8874 -7.47591,4.3749 -1.17842,0.4876 -6.43455,3.6376 -11.6803,7 -5.24576,3.3625 -9.80044,6.1136 -10.12151,6.1136 -0.79329,0 -37.824,22.335 -42.29308,25.509 -1.96394,1.3948 -11.86394,7.2192 -22,12.9432 -17.49799,9.8813 -46.01675,26.8666 -71.27042,42.4476 -6.32933,3.9051 -12.02933,7.0761 -12.66666,7.0468 -0.63734,-0.029 -2.95879,-0.9954 -5.15879,-2.1467 z m 122.8667,-224.13325 c -0.46558,-4.2166 -1.22103,-9.0166 -1.67878,-10.6666 l -0.83227,-3 h 20.48884 c 18.09245,0 20.9971,0.3148 24.83436,2.6544 4.78288,2.9162 9.1115,9.1664 10.39484,15.0094 0.82701,3.7653 0.85781,3.7754 10.37789,3.3872 l 9.54842,-0.3894 -0.45213,-7.3333 c -0.7474,-12.1222 -7.1524,-23.65405 -16.73759,-30.13499 -8.3456,-5.64282 -13.61723,-6.53166 -38.73859,-6.53166 h -23.92831 l -3.04399,-6 c -1.67419,-3.3 -6.77822,-14.30557 -11.34228,-24.45683 l -8.29829,-18.45682 2.92994,-2.21006 c 3.04461,-2.29655 4.58442,-6.35501 26.89095,-70.87628 34.51062,-99.82143 30.46496,-90.94652 55.24375,-121.18734 8.17768,-9.98029 18.82601,-23.24599 23.66296,-29.47932 4.83695,-6.23333 12.81654,-16.13333 17.73244,-22 4.9159,-5.86667 9.78023,-12.25792 10.80963,-14.20279 2.03477,-3.84431 10.13388,-34.75486 19.86021,-75.7972 3.38885,-14.3 7.61769,-31.4 9.39743,-38 1.77973,-6.6 4.17458,-15.85175 5.32188,-20.55945 2.44574,-10.03553 4.11012,-6.74906 -17.97467,-35.49264 -7.70001,-10.02163 -14.69126,-19.20966 -15.53613,-20.41786 -2.12102,-3.03313 -15.36084,-62.47797 -14.86525,-66.74276 0.3411,-2.93522 2.50396,-4.49533 14.40137,-10.38795 7.7,-3.8137 15.07391,-6.9637 16.38646,-7 6.20053,-0.17148 19.73558,10.74105 26.9175,21.70203 1.33418,2.03623 2.88058,3.22142 3.43644,2.63377 1.52759,-1.61496 8.87412,-24.10294 10.4978,-32.13409 5.58112,-27.60576 -7.97205,-56.64521 -33.12395,-70.97241 -4.46914,-2.54574 -9.90206,-5.65699 -12.07316,-6.91389 -2.24153,-1.29767 -5.47173,-5.29329 -7.4746,-9.24577 -4.44383,-8.76947 -12.14179,-16.21552 -21.75364,-21.04176 -9.7966,-4.91901 -36.52296,-14.3245 -44.14618,-15.53584 -3.3,-0.52437 -22.87646,-0.94206 -43.50326,-0.92819 l -37.50325,0.0252 -12.49675,5.72641 c -21.71902,9.95236 -45.23277,22.81822 -47.20564,25.82921 -1.04613,1.59659 -15.71378,31.67734 -32.59478,66.84611 -40.722,84.83754 -38.28497,80.14483 -43.16079,83.10993 -2.31121,1.40551 -10.8022,5.97905 -18.86887,10.16344 -19.44499,10.08662 -29.71633,16.30831 -35.09735,21.25963 -2.43688,2.24228 -9.88549,13.67687 -16.55247,25.41021 -6.66696,11.73333 -25.72506,44.13333 -42.35132,71.99999 -49.89374,83.62505 -77.09912,129.61754 -89.2774,150.92931 -5.07576,8.8825 -16.28519,27.84617 -48.31498,81.73734 -25.12777,42.27831 -42.51824,71.78068 -53.05141,90 -6.78341,11.73333 -14.33771,24.78333 -16.78735,28.99999 -2.44963,4.21667 -4.12817,7.66667 -3.73009,7.66667 1.63368,0 153.47332,-75.5547 260.0982,-129.42365 35.05196,-17.70893 71.43709,-36.05071 80.85585,-40.75953 28.20502,-14.1008 31.75651,-16.90024 53.0507,-41.81681 14.67899,-17.17603 74.93693,-89.215 79.53235,-95.0817 10.00619,-12.77431 9.9649,-12.58401 11.33943,-52.25162 1.45782,-42.07139 0.34519,-56.00753 -5.60152,-70.16112 -7.69476,-18.31409 -18.93572,-30.62885 -44.47167,-48.71988 -16.79365,-11.89751 -20.98788,-12.9746 -52.64097,-13.51837 -14.85,-0.25512 -27,-0.64065 -27,-0.85674 0,-1.0118 26.8261,-56.93418 49.77042,-103.75272 l 13.56292,-27.67552 22,-10.82675 22,-10.82674 39.13519,0.0918 39.1352,0.0918 12.19814,4.80211 c 18.62739,7.33316 27.24876,11.54609 30.32168,14.81707 1.53882,1.63799 4.16035,6.77849 5.82564,11.42333 l 3.02779,8.44516 9.84485,4.02971 c 5.41466,2.21634 12.24485,5.41929 15.17818,7.11768 6.99487,4.05 15.34508,14.33589 18.18786,22.40402 2.58062,7.32413 3.2887,23.11525 1.03649,23.11525 -0.79327,0 -5.14327,-2.20737 -9.66667,-4.90528 -5.42629,-3.23642 -9.81203,-4.88408 -12.89101,-4.84298 -3.03524,0.0405 -12.35769,3.81898 -26.66667,10.8082 -29.05084,14.18989 -27.76384,11.15542 -19.90853,46.94006 1.5293,6.96667 3.61892,16.86667 4.64361,22 5.90539,29.58398 5.35894,28.07664 15.38294,42.43315 15.74849,22.5552 19.77472,28.10465 22.55506,31.08811 1.46314,1.57002 2.66025,4.1524 2.66025,5.73862 0,1.58621 -2.43076,12.00164 -5.4017,23.1454 -2.97093,11.14376 -7.19973,28.36138 -9.39732,38.26138 -8.68668,39.13276 -14.83367,61.86139 -18.18159,67.22677 -1.86693,2.99194 -7.51003,10.38989 -12.54023,16.43989 -21.58432,25.96021 -27.7181,33.41798 -33.267,40.44777 -23.43511,29.68949 -22.81963,29.10087 -57.09565,54.60436 l -25.44984,18.93627 v 11.83913 c 0,7.49073 0.52191,11.83912 1.42098,11.83912 2.32815,0 5.99146,-2.30387 21.54503,-13.54977 8.13824,-5.8843 15.56604,-10.99391 16.50623,-11.35469 1.08417,-0.41604 0.10419,3.89675 -2.6792,11.79091 -2.41375,6.84579 -11.47123,33.56797 -20.12774,59.38263 l -15.73909,46.93573 -9.79644,4.30522 c -5.38804,2.36787 -9.79644,4.56509 -9.79644,4.88272 0,0.31763 1.18218,2.75919 2.62708,5.42571 4.45149,8.2151 25.37292,53.69723 25.37292,55.15944 0,1.61109 -38.55876,0.37858 -40.09088,-1.28148 -0.52272,-0.56637 -6.39101,-11.73918 -13.04064,-24.82848 -11.00869,-21.66978 -11.92857,-24.05528 -10.28299,-26.66667 2.37344,-3.76642 4.54757,-11.73768 12.60121,-46.20127 14.76464,-63.18159 21.81537,-97.08872 23.42818,-112.66666 0.45553,-4.4 2.09721,-11.50485 3.64817,-15.78856 3.03108,-8.37177 5.48454,-11.27525 38.40362,-45.44777 9.9,-10.27696 23.4,-24.37156 30,-31.32134 6.6,-6.94977 18.67673,-19.56738 26.83719,-28.03913 8.16046,-8.47176 15.51046,-16.71374 16.33334,-18.31553 0.96532,-1.87909 1.49613,-12.79821 1.49613,-30.77661 v -27.86427 l 4.89548,-3.22339 c 6.82436,-4.49344 9.95049,-9.24129 10.74893,-16.32505 0.91946,-8.15743 -0.21007,-11.93121 -5.30951,-17.73915 -7.35333,-8.37498 -16.06166,-10.44748 -26.44381,-6.29337 -6.23502,2.49476 -12.72024,10.42409 -13.96876,17.0793 -1.7382,9.26542 5.87998,23.61719 13.55956,25.54464 l 3.18478,0.79933 v 26.87068 26.87069 l -11.55248,11.98477 c -21.94703,22.76828 -70.67915,74.69955 -83.55044,89.03535 -8.2012,9.13433 -14.61448,17.75962 -17.57246,23.63338 -5.43734,10.79711 -5.89444,13.51492 -1.65796,9.85781 1.65,-1.42435 5.03144,-4.00711 7.51432,-5.73947 l 4.51431,-3.14975 -0.91874,5.17372 c -1.54238,8.68571 -1.85444,9.09359 -9.09505,11.88781 -8.20391,3.16597 -7.33595,1.25782 -16.96031,37.28591 -3.52619,13.2 -7.92521,29.4 -9.77561,36 -1.8504,6.6 -6.42333,23.99999 -10.16206,38.66666 -7.44451,29.20409 -8.16346,30.49506 -18.96896,34.0612 -2.87096,0.9475 -5.04606,2.07134 -4.83356,2.49743 0.61773,1.23864 27.89922,56.6819 35.80961,72.7747 l 7.20939,14.66668 27.58275,0.6666 27.58274,0.6667 4.13511,3.9652 c 2.2743,2.1808 5.1529,6.8308 6.39687,10.3333 l 2.26178,6.3682 h 9.87698 9.87699 z M 180.03849,822.57495 c 0,-0.36348 2.60082,-4.94249 5.7796,-10.17557 3.17878,-5.23308 9.86313,-16.41469 14.85411,-24.84803 4.99098,-8.43333 11.46064,-19.08333 14.37701,-23.66666 l 5.30251,-8.33333 20.84339,-0.0909 20.84339,-0.0909 9.04474,-10.24244 c 4.97462,-5.63335 16.45336,-18.04245 25.50831,-27.57578 l 16.46355,-17.33333 32.02697,-0.41943 32.02696,-0.41943 14.46473,-14.922 c 52.91023,-54.58287 90.44607,-93.44454 105.83423,-109.57247 l 17.81044,-18.66666 h 10.83806 c 9.88715,0 11.28087,-0.33714 15.88484,-3.84243 6.20722,-4.72595 8.76383,-10.53637 8.76383,-19.91757 0,-7.92298 -3.06579,-13.8207 -9.76444,-18.78407 -2.97594,-2.20503 -5.71646,-2.78926 -13.0837,-2.78926 h -9.31926 l -6.77205,7.09908 -6.77206,7.09909 0.84666,11.01474 0.84666,11.01473 -6.99091,6.65812 c -6.12674,5.83509 -23.05935,23.26248 -91.11832,93.78089 -8.84696,9.16667 -18.13751,18.77836 -20.64565,21.35931 -2.50815,2.58096 -7.33519,7.83096 -10.72675,11.66667 l -6.16648,6.97402 h -31.86479 -31.8648 l -10.06595,10.33333 c -9.21585,9.46066 -25.95518,28.08183 -34.78541,38.69603 l -3.58059,4.30397 h -14.8954 c -13.50599,0 -14.81378,-0.21269 -14.02041,-2.28017 0.48124,-1.25409 6.75724,-12.20409 13.94667,-24.33333 7.18944,-12.12924 19.00989,-32.09979 26.26767,-44.37899 l 13.19598,-22.32583 38.23643,-0.008 38.23642,-0.008 9.09691,-10.51439 c 11.0648,-12.78894 60.38801,-66.59357 63.94365,-69.75348 2.13045,-1.89333 3.44739,-2.04058 7.97411,-0.89158 8.37856,2.12671 15.22672,-0.30399 21.75658,-7.72229 5.19233,-5.8988 6.25196,-9.1139 5.6418,-17.11825 -0.7093,-9.30498 -8.01624,-18.45783 -16.57522,-20.76252 -10.05241,-2.70683 -18.4189,0.5871 -25.17288,9.9107 -3.06891,4.23651 -3.80447,6.64803 -3.80447,12.47286 0,3.97151 0.59699,8.33643 1.32665,9.69982 1.61203,3.0121 0.41686,4.43677 -41.27041,49.1957 l -29.94374,32.1501 h -29.72291 c -21.97566,0 -29.72292,-0.41074 -29.72292,-1.57583 0,-0.86671 5.52321,-10.7667 12.2738,-22 l 12.2738,-20.42417 15.39287,-0.0752 15.39286,-0.0752 10.30253,-12.25815 c 5.66639,-6.74198 15.20058,-17.65814 21.18709,-24.25814 15.60112,-17.19987 36.37788,-40.69308 46.9801,-53.12247 5.02502,-5.89103 13.38957,-15.39843 18.58789,-21.12757 l 9.45151,-10.41662 h 15.76503 15.76504 l 2.40338,3.95204 c 5.95126,9.78606 18.76369,15.39362 27.55743,12.06092 4.82155,-1.8273 10.88161,-7.35927 13.45237,-12.28008 3.00889,-5.75949 2.41998,-17.20534 -1.15847,-22.5154 -5.97282,-8.86306 -20.83778,-13.44402 -29.38156,-9.05456 -4.41108,2.26623 -10.37125,8.13637 -11.6802,11.50375 -1.12879,2.9039 -1.73862,3 -19.03837,3 h -17.87222 l -5.16078,5.04259 c -4.79176,4.68204 -15.56897,16.66123 -45.32027,50.37484 -6.51228,7.3796 -22.56171,25.5296 -35.66539,40.33334 l -23.8249,26.91588 h -7.88868 c -9.1595,0 -9.38817,1.85459 2.21935,-17.99999 9.47284,-16.20323 30.74894,-52.65289 45.91866,-78.66667 23.1451,-39.6903 24.64862,-41.88999 32.95474,-48.21383 9.15368,-6.96912 39.72905,-22.24397 48.70281,-24.33097 9.12497,-2.12216 54.81896,-1.85212 63.07624,0.37276 9.98747,2.69109 19.63274,7.78639 29.29788,15.47717 11.82663,9.41073 17.24659,16.06822 23.75088,29.17389 6.26971,12.633 5.98692,9.04497 5.28458,67.05042 l -0.33334,27.52943 -11,13.40175 c -26.16813,31.8817 -62.87112,75.40655 -77.68722,92.12667 l -16.02054,18.07937 -41.31279,21.02745 C 354.40418,735.80336 180.03849,823.21583 180.03849,822.57495 Z M 440.52393,552.65858 c -2.83886,-1.3746 -5.81877,-6.32004 -5.81877,-9.6568 0,-0.9666 1.24354,-3.33837 2.76344,-5.2706 3.51588,-4.46971 11.55155,-4.91836 15.23293,-0.85049 3.53985,3.9115 2.91359,10.69186 -1.32426,14.33735 -3.77102,3.2439 -6.40656,3.59371 -10.85334,1.44054 z m 81.29692,-11.0761 c -3.87851,-2.71662 -4.92443,-7.91087 -2.52663,-12.54771 3.37728,-6.53093 10.86955,-7.47933 16.2872,-2.06168 8.48023,8.48023 -3.83863,21.55898 -13.76057,14.60939 z m 136.15704,-43.9705 c -1.8,-1.8 -3.27273,-4.82727 -3.27273,-6.72727 0,-4.34423 5.5198,-10 9.75958,-10 1.76777,0 4.79505,1.24355 6.72728,2.76344 4.68618,3.68615 4.98953,12.05124 0.5498,15.16095 -4.37723,3.06593 -9.98896,2.57785 -13.76393,-1.19712 z M 502.20018,469.52259 c -1.25537,-1.25537 -2.16169,-4.34495 -2.16169,-7.36905 0,-4.04275 0.72439,-5.68199 3.23897,-7.32961 4.68934,-3.07257 11.27733,-2.01709 14.50361,2.32367 2.47077,3.32426 2.52749,3.97966 0.75006,8.66666 -1.80081,4.74866 -2.31143,5.09582 -8.04605,5.47023 -4.28622,0.27985 -6.77173,-0.24873 -8.2849,-1.7619 z m 118.09414,-24.74968 5.07751,-5.44514 v -22.25712 -22.25712 l -29.43582,-29.27341 -29.43582,-29.27341 0.43582,-31.69205 c 0.2397,-17.43063 -0.004,-31.69158 -0.54077,-31.691 -0.53713,5.9e-4 -3.74749,2.65605 -7.13414,5.90103 l -6.15756,5.89998 0.46748,28.69827 0.46747,28.69827 29,29.00751 29,29.0075 v 25.06091 c 0,18.50793 0.41554,25.06091 1.58916,25.06091 0.87403,0 3.87403,-2.45031 6.66667,-5.44513 z m 37.74417,-150.37574 c 2.93334,-1.33594 7.56033,-4.89902 10.28221,-7.91796 2.72187,-3.01894 7.39611,-7.10849 10.38718,-9.08788 3.34618,-2.2144 4.96207,-4.07515 4.20037,-4.83686 -1.28134,-1.28133 -23.98555,-9.5346 -32.20309,-11.70622 -2.56667,-0.67828 -15.32321,-1.24756 -28.34787,-1.26505 -21.37361,-0.0287 -24.2661,0.24313 -29.68366,2.78968 -12.301,5.78216 -10.24066,7.01966 13.06158,7.84517 l 18.81833,0.66667 2.30648,7.78157 c 2.59881,8.76785 5.0938,12.06071 11.84374,15.63128 5.94838,3.14655 12.56964,3.18066 19.33473,0.0996 z"/></svg>