<svg xmlns="http://www.w3.org/2000/svg" viewBox="0 0 1024 1024" fill="currentColor"><path d="m 515.63426,1010.3751 c -1.82067,-12.40735 -27.38838,-162.72024 -44.92952,-264.1412 -2.25922,-13.06259 -5.78972,-33.90336 -7.84555,-46.31282 -2.05582,-12.40946 -3.88023,-22.74681 -4.05423,-22.97187 -0.30541,-0.39503 -19.9488,14.47722 -94.29124,71.38902 -19.26213,14.74585 -35.12256,26.7101 -35.24542,26.58725 -0.12285,-0.12286 3.2255,-11.43813 7.44078,-25.14505 4.21528,-13.70692 14.34403,-47.63277 22.50833,-75.39077 8.16431,-27.75801 15.38657,-51.74243 16.04946,-53.29873 1.15114,-2.7025 1.03823,-2.79619 -2.5136,-2.08583 -15.99249,3.1985 -148.62521,22.11745 -149.51608,21.32722 -0.30105,-0.26703 0.86473,-1.66421 2.5906,-3.10485 1.72588,-1.44064 18.27073,-15.46324 36.76636,-31.16134 18.49561,-15.6981 37.82299,-31.97892 42.94974,-36.17961 8.65541,-7.09196 9.12202,-7.69972 6.5313,-8.50687 -2.48939,-0.77558 -42.7815,-7.76596 -139.94726,-24.27984 C 94.92852,523.97933 31.82381,512.67084 32.429131,512.06552 33.602793,510.89185 237.25025,473.40735 299.05689,462.9885 c 12.49341,-2.10604 15.57677,-2.94864 14.28556,-3.9039 -0.7111,-0.52607 -85.15566,-70.96062 -88.84794,-74.10738 -2.81784,-2.40149 -2.87932,-2.63285 -0.70998,-2.6715 3.07415,-0.0547 132.47767,18.92145 145.46882,21.33209 2.93858,0.54528 5.55652,0.77776 5.81766,0.51662 0.26114,-0.26113 -3.65146,-14.24446 -8.69466,-31.07406 -5.04319,-16.8296 -14.51644,-48.50096 -21.05166,-70.3808 -6.53521,-21.87983 -12.90527,-42.94697 -14.1557,-46.81586 -1.25042,-3.86889 -2.06939,-7.23844 -1.81994,-7.48788 0.24945,-0.24945 29.39999,21.18242 64.77896,47.62636 35.379,26.44395 64.50349,47.448 64.72113,46.67565 0.21763,-0.77234 2.32986,-12.89339 4.69382,-26.93568 2.36399,-14.04228 9.06891,-53.31912 14.89985,-87.28185 5.83093,-33.96274 15.47119,-90.33969 21.42277,-125.28213 12.34777,-72.495 16.61524,-96.160465 17.71524,-98.2405721 0.42424,-0.8022581 7.07576,35.8026861 14.78115,81.3443161 7.70539,45.541636 15.7941,93.223356 17.97491,105.959376 2.18082,12.73603 8.88792,52.01287 14.90464,87.28187 6.01673,35.26898 11.14124,64.3502 11.3878,64.62492 0.24655,0.27471 1.64852,-0.59966 3.11549,-1.94304 1.46696,-1.34338 20.03452,-15.49254 41.26123,-31.44259 21.22671,-15.95004 48.67205,-36.61507 60.98962,-45.92227 12.31759,-9.3072 22.63074,-16.68704 22.91813,-16.39965 0.52785,0.52785 -5.19349,20.40545 -30.138,104.70814 -16.65238,56.2785 -15.63152,51.95111 -12.06004,51.12217 2.91471,-0.6765 95.8325,-14.97782 130.47898,-20.0825 10.77664,-1.58779 19.7946,-2.69709 20.03988,-2.46511 0.2453,0.23198 -1.32401,1.91329 -3.48734,3.73622 -2.16333,1.82297 -11.71565,9.88253 -21.22739,17.91013 -9.51172,8.02763 -28.58068,24.059 -42.37546,35.62525 l -25.08142,21.02958 4.89379,0.92699 c 2.69156,0.50984 25.46734,4.61223 50.61283,9.11642 107.60678,19.27508 225.59408,41.18489 226.46248,42.05321 0.2646,0.26463 -3.15512,1.09444 -7.59934,1.84404 -4.44424,0.7496 -44.41818,7.74539 -88.83099,15.54619 -44.41281,7.80081 -104.23158,18.2151 -132.93062,23.14285 -28.69903,4.92775 -52.37732,9.15683 -52.61843,9.39793 -0.2411,0.24111 6.36514,6.23998 14.68055,13.33081 8.31541,7.09085 25.38048,21.74488 37.92237,32.56453 12.5419,10.81965 26.04646,22.30879 30.01014,25.53142 3.96367,3.22265 7.23703,6.18603 7.27413,6.58531 0.037,0.39928 -1.1349,0.538 -2.60444,0.30827 -1.46955,-0.22973 -19.50483,-2.81658 -40.07841,-5.74856 -20.57358,-2.93199 -53.41101,-7.72884 -72.97207,-10.65969 -19.56107,-2.93086 -35.70428,-5.19011 -35.87382,-5.02057 -0.16954,0.16955 3.0901,11.77461 7.24365,25.78902 4.15354,14.01443 12.72993,43.11528 19.05864,64.66856 6.32871,21.55327 13.329,44.92246 15.5562,51.93152 2.22721,7.00907 4.04947,13.06008 4.04947,13.44668 0,0.72119 -2.21017,-0.95541 -43.93781,-33.33036 -13.38916,-10.38816 -37.94352,-29.23757 -54.56527,-41.88759 -28.33033,-21.56087 -30.28295,-22.83351 -31.20583,-20.33874 -0.54146,1.46373 -11.63644,66.83277 -24.6555,145.26454 -24.51463,147.6853 -31.53417,188.4816 -33.1048,192.3993 -0.65288,1.6285 -1.29682,-0.2698 -2.21566,-6.5314 z m 32.07563,-376.79909 c 41.9418,-10.85088 75.69618,-41.60492 90.2985,-82.27207 13.10565,-36.49897 6.75489,-80.18773 -16.34851,-112.46635 -6.73249,-9.40622 -23.05706,-25.56561 -32.14042,-31.81519 -9.71337,-6.68308 -29.01639,-15.80151 -39.63834,-18.72454 -34.88034,-9.59861 -70.64602,-3.79817 -101.23468,16.41815 -20.87883,13.79901 -38.62691,34.65677 -47.40745,55.71384 -10.80995,25.92387 -12.98618,58.0913 -5.71814,84.52141 3.16373,11.50486 11.47846,29.149 18.10417,38.41769 19.16825,26.81441 50.80568,46.62901 83.88016,52.5344 13.51567,2.41319 35.89032,1.37598 50.20471,-2.32734 z m 144.04636,340.3571 c -0.37797,-0.37796 -0.68722,-13.6311 -0.68722,-29.4514 v -28.7642 l 9.20319,-4.36056 c 49.76604,-23.57968 102.16412,-63.43216 139.77149,-106.30616 29.67067,-33.82586 56.32701,-76.75435 73.20041,-117.88505 l 5.23274,-12.75534 28.20332,-0.0107 c 15.51183,-0.006 28.20331,0.40965 28.20331,0.92304 0,0.51338 -2.99755,8.92985 -6.66121,18.70325 -46.38617,123.74262 -137.22108,219.66179 -258.5431,273.01475 -9.47964,4.1688 -17.54495,7.27038 -17.92293,6.89241 z M 327.6915,967.87626 C 269.06764,941.30263 226.06686,912.72944 185.45354,873.36181 146.97091,836.05952 119.37113,799.63042 93.087633,751.44755 81.034484,729.35172 64.239851,690.45515 61.225861,677.6553 l -0.76896,-3.26564 28.225943,0.0173 28.225946,0.0173 4.60112,11.56082 c 18.83701,47.32997 51.11971,97.12721 87.43077,134.86514 35.33402,36.72251 80.66465,69.6236 122.99623,89.27104 l 11.1922,5.19475 v 29.16282 c 0,22.56886 -0.33563,29.15 -1.48439,29.1061 -0.81641,-0.0312 -7.09536,-2.60014 -13.95322,-5.70874 z M 60.502145,345.10397 c 0,-1.28046 11.229458,-30.92356 16.063709,-42.4044 13.17316,-31.28486 32.993236,-65.61695 54.327036,-94.10467 37.50168,-50.07721 88.70237,-96.31188 140.24049,-126.638389 19.09892,-11.238353 59.55657,-30.519152 69.02727,-32.89614 l 2.96846,-0.745043 v 29.570974 29.570958 l -8.60943,4.06995 c -38.46593,18.18403 -80.90162,47.59651 -113.70392,78.80901 -42.57171,40.50838 -73.69493,84.82808 -96.83572,137.89478 l -7.24971,16.62511 -28.114094,0.31837 c -15.462746,0.17511 -28.114091,0.14338 -28.114091,-0.0705 z M 915.91595,338.6217 C 891.14157,282.66785 864.53638,242.10362 827.17986,203.32809 794.74596,169.66216 750.407,137.33465 705.63572,114.71031 l -14.55647,-7.35585 -0.005,-29.390827 c -0.005,-24.934502 0.25692,-29.390829 1.72307,-29.390829 0.95047,0 7.49662,2.454841 14.54697,5.4552 59.64352,25.381991 104.85587,56.147556 152.42466,103.720096 24.95431,24.95632 37.70258,40.12722 54.3549,64.6844 15.05633,22.20356 25.18115,39.57848 35.17118,60.35632 10.79776,22.45853 24.40071,56.70752 24.40071,61.43607 0,0.80621 -9.35963,1.22498 -27.37838,1.22498 h -27.37818 z"/></svg>