<svg xmlns="http://www.w3.org/2000/svg" viewBox="0 0 994.66669 1189.3333" fill="currentColor"><path d="m 491.94869,1181.5254 c -10.96598,-6.8365 -68.55763,-41.534 -82,-49.4029 -14.16426,-8.2914 -24.62897,-14.5684 -54.66667,-32.7901 -6.23333,-3.7813 -26.33333,-15.7639 -44.66666,-26.6279 -28.66447,-16.9862 -48.5467,-28.9223 -83.33334,-50.0285 -4.03333,-2.4472 -10.33333,-6.3572 -14,-8.6889 -3.66667,-2.3317 -9.36667,-5.5999 -12.66667,-7.2626 -5.24504,-2.6428 -23.79352,-13.82454 -38.97141,-23.49345 -2.73428,-1.74184 -5.27729,-3.16698 -5.65113,-3.16698 -0.37385,0 -5.93671,-3.2063 -12.36192,-7.1251 -6.42521,-3.91881 -16.78219,-10.14969 -23.01553,-13.84642 -6.23333,-3.69672 -18.23333,-10.88484 -26.666669,-15.97359 -33.193123,-20.02903 -54.522265,-32.38822 -55.894683,-32.38822 -0.791258,0 -1.438651,-0.47485 -1.438651,-1.05522 0,-0.58038 -7.05,-5.1694 -15.666667,-10.19783 -8.616667,-5.02843 -16.716667,-10.04657 -18,-11.15142 -2.125229,-1.82967 -2.333334,-5.55791 -2.333334,-41.80218 0,-37.00338 0.163593,-39.79448 2.333334,-39.8095 1.283333,-0.009 48.133692,-0.002 104.11191,0.016 78.58357,0.0249 102.50081,0.41063 104.94772,1.69269 1.74303,0.91327 13.54529,11.88118 26.22726,24.37313 28.60185,28.17333 30.51042,29.26761 51.04644,29.26761 13.56809,0 15.21088,-0.2864 21.93216,-3.82366 5.70401,-3.00189 21.74414,-18.47594 74.63395,-71.99999 37.05265,-37.49699 100.03524,-100.99919 139.9613,-141.11601 39.92606,-40.11682 73.66256,-74.62918 74.97,-76.69413 4.80064,-7.58209 6.5026,-18.53552 6.5026,-41.84921 v -22.2561 l 3.86874,-1.34865 c 5.49685,-1.91622 14.50757,-10.45021 17.76093,-16.82127 3.87097,-7.58053 4.69258,-21.33929 1.80201,-30.17669 l -2.25075,-6.88127 15.87245,-16.18316 c 8.72986,-8.90074 40.29015,-40.48316 70.13398,-70.18315 29.84384,-29.7 56.01462,-56.71996 58.1573,-60.04435 7.68487,-11.92317 8.22536,-17.17833 7.7509,-75.36178 -0.23589,-28.92742 -0.28946,-52.59498 -0.11905,-52.59459 0.17042,4e-4 8.87042,5.024 19.33334,11.16356 21.62079,12.68691 53.88755,32.26452 100.35682,60.89074 10.26667,6.32452 22.86667,14.0037 28,17.06486 5.13334,3.06115 18.03334,10.95681 28.66667,17.54591 10.63333,6.5891 23.663,14.53516 28.95482,17.65791 l 9.62149,5.67774 0.0452,33 0.0452,32.99999 H 892.68104 c -69.40395,0 -104.88716,0.47424 -109.66667,1.4657 -13.86697,2.87658 -14.38255,3.32765 -79.55662,69.60329 -33.14417,33.70437 -41.025,42.43142 -43.9477,48.66666 l -3.56131,7.59768 -0.3882,41.0709 -0.38819,41.07089 -5.8488,2.50709 c -15.70967,6.73395 -24.62675,27.91967 -18.86667,44.82456 l 2.14975,6.30918 -7.66228,7.68342 c -4.21425,4.22588 -15.735,16.18274 -25.60166,26.5708 -10.84734,11.42056 -20.5989,20.41285 -24.66667,22.74608 -6.36466,3.65071 -7.56909,3.85938 -22.34394,3.87122 -27.01862,0.0217 -22.22325,-3.35472 -84.38335,59.41346 l -53.33333,53.85507 -6.47584,-2.29468 -6.47585,-2.29468 -12.52416,13.12348 c -6.88828,7.21791 -12.52415,13.9578 -12.52415,14.97753 0,2.52417 9.56188,7.13152 28.66666,13.81293 31.3549,10.96557 55.62435,14.75644 94.40163,14.7455 39.16754,-0.011 65.47466,-4.62751 100.93171,-17.7118 16.70203,-6.16334 34.96291,-14.68756 40.48168,-18.89693 2.44018,-1.86123 4.875,-3.38404 5.4107,-3.38404 1.77278,0 19.92546,-12.23501 31.43646,-21.18835 27.30713,-21.23969 52.01886,-49.12743 71.60833,-80.81165 15.42611,-24.95035 30.75064,-64.06238 36.39166,-92.88063 l 1.47734,-7.5473 14.26359,-0.4984 c 7.84497,-0.27411 14.37013,-0.47128 14.50035,-0.43814 0.71336,0.18152 2.02918,371.45665 1.32639,374.25678 -0.59147,2.3566 -3.91563,5.22082 -11.2021,9.65206 -19.40689,11.8024 -106.33276,63.8221 -114.10896,68.2872 -8.11984,4.6623 -27.6109,16.3254 -65.58544,39.245 -12.46666,7.5243 -31.18408,18.6461 -41.59425,24.7153 -10.41017,6.0691 -33.98703,20.0737 -52.39303,31.1214 -18.40599,11.0477 -34.18858,20.0765 -35.07242,20.0642 -0.88383,-0.012 -3.40697,-1.1446 -5.60697,-2.5162 z M 840.61537,792.71477 V 605.36546 l 5.94877,-8.98401 c 6.04607,-9.13095 10.04768,-20.9094 10.05545,-29.59749 0.002,-2.59592 -1.31906,-9.21986 -2.93641,-14.71986 -2.52973,-8.60264 -3.97426,-11.03667 -10.33756,-17.41871 -4.08,-4.09202 -10.98427,-9.17411 -15.39692,-11.33334 -7.26201,-3.5535 -9.47931,-3.95482 -24.03604,-4.35037 l -16.03603,-0.43575 -4.43741,-18.23091 c -4.04546,-16.62058 -14.34365,-47.34248 -17.50817,-52.23092 -1.04316,-1.61143 -4.27902,1.00417 -16.65547,13.46292 l -15.36076,15.46291 3.25842,8.65684 c 16.89694,44.89102 17.41512,109.3557 1.29484,161.08399 -21.63286,69.41757 -77.46034,128.47518 -148.2039,156.77887 -30.21684,12.08941 -57.99803,17.09361 -94.31549,16.98897 -18.50472,-0.0533 -27.64231,-0.72581 -39.90739,-2.93701 -8.74906,-1.57732 -16.04413,-3.00952 -16.21126,-3.18268 -0.63837,-0.66138 90.98266,-92.61523 94.72293,-95.06702 3.26614,-2.14099 7.13139,-2.69482 22.66666,-3.24781 26.8207,-0.95469 26.7819,-0.93173 62.50198,-36.97635 l 28.59782,-28.85764 6.96774,2.25033 c 10.13979,3.27479 16.36268,2.84735 26.08263,-1.79155 14.28319,-6.81674 21.91223,-19.13923 21.91223,-35.39281 0,-4.01067 -1.12308,-9.63092 -2.6244,-13.13336 -3.12886,-7.29934 -13.23599,-18.49831 -18.75978,-20.78634 l -3.94915,-1.63579 v -38.98823 -38.98823 l 3.79759,-4.77865 c 8.71038,-10.96059 95.93746,-98.64889 100.48263,-101.01394 4.76409,-2.47897 8.79161,-2.57408 109,-2.57408 h 104.05312 v 247.18034 247.18034 l -9,5.30295 c -8.98493,5.29406 -73.36978,43.80459 -115.00001,68.78498 -12.1,7.26066 -23.59262,14.32998 -25.53916,15.70961 -1.94654,1.37962 -3.89654,2.50841 -4.33333,2.50841 -0.4368,0 -0.79417,-84.30719 -0.79417,-187.3493 z m -561.57639,46.31434 c -2.70034,-1.2641 -15.35147,-12.54698 -28.11361,-25.07306 -25.5308,-25.05854 -30.14902,-28.13402 -44.55895,-29.67371 -5.01357,-0.5357 -52.30857,-0.91216 -105.09998,-0.83659 -52.791432,0.0756 -97.034417,-0.12436 -98.31775,-0.4443 C 0.73734,782.45014 0.615356,769.96069 0.615356,544.10033 v -238.3194 l 25.666667,-15.71691 c 14.116667,-8.6443 30.166667,-18.54713 35.666668,-22.00629 17.142635,-10.78166 38.934819,-24.24188 48.666669,-30.05958 5.13334,-3.0687 21.93333,-13.24163 37.33333,-22.6065 15.4,-9.36487 40.6,-24.66456 56,-33.9993 15.4,-9.33475 33.4,-20.25741 40,-24.27258 6.6,-4.01516 21.6,-13.02432 33.33333,-20.02036 11.73334,-6.99603 32.43334,-19.47081 46,-27.72174 13.56667,-8.25092 41.16667,-24.914258 61.33334,-37.029641 20.16666,-12.115383 53.3001,-32.148025 73.62985,-44.516982 20.32975,-12.368957 37.77495,-22.8005159 38.7671,-23.1812407 0.99215,-0.3807249 11.05872,4.9851095 22.37015,11.9240767 11.31143,6.938968 24.94869,15.212943 30.30503,18.386612 5.35634,3.173669 13.15634,7.907004 17.33333,10.518523 4.177,2.611519 31.29454,19.008588 60.26121,36.437931 28.96667,17.429346 67.96667,40.969481 86.66667,52.311421 18.7,11.34194 36.24538,21.94487 38.98973,23.56206 l 4.98973,2.94036 0.0103,61.35413 c 0.009,55.93124 -0.19597,61.73097 -2.32306,65.61768 -1.28334,2.34495 -34.35964,36.4018 -73.50289,75.68189 -60.62849,60.84044 -71.58878,71.28379 -74,70.5098 -10.77978,-3.46023 -19.22006,-3.24503 -28.16378,0.71809 -8.25474,3.65781 -13.47588,8.81937 -17.92263,17.71811 -9.22231,18.45546 -2.79457,38.99574 15.4199,49.27534 l 7.16939,4.04616 -0.15775,20.87272 c -0.0868,11.47999 -0.53677,22.46829 -1,24.41843 -1.49289,6.28481 9.31221,-4.82406 -200.48474,206.12094 -11.85181,11.91667 -22.06364,21.66667 -22.69295,21.66667 -2.36822,0 -17.69051,-11.32927 -30.45367,-22.51737 -36.67198,-32.14642 -66.56449,-81.5035 -77.17561,-127.42864 -9.38407,-40.61445 -9.688,-82.12901 -0.87034,-118.88357 5.05187,-21.05766 8.54784,-30.69797 20.24883,-55.83707 14.32805,-30.78326 39.55505,-61.37854 71.91956,-87.22397 64.1806,-51.2529 155.77678,-66.50387 236.18967,-39.3261 15.97776,5.40012 49.53338,22.10481 59.39123,29.56619 l 8.79246,6.65499 14.14666,-14.19066 c 7.78066,-7.80486 14.14665,-14.60005 14.14665,-15.10043 0,-1.11164 -15.29767,-11.41725 -30.7925,-20.74405 -20.72236,-12.4734 -57.69542,-27.1661 -82.58595,-32.81877 -30.35503,-6.89367 -73.45957,-8.63674 -104.62155,-4.23071 -66.02711,9.33566 -122.36887,37.93488 -168.72851,85.64701 -21.69261,22.32547 -30.45926,33.84837 -46.99206,61.7665 -11.76108,19.86035 -26.38308,57.54628 -30.80931,79.40618 -11.08155,54.72863 -8.78562,104.91974 7.01072,153.26047 6.39976,19.58489 15.61736,40.92755 22.6535,52.45248 11.5837,18.97368 25.17136,38.3384 33.83048,48.21418 16.56022,18.88706 42.01109,41.96023 56.84506,51.53442 0.26211,0.16917 -6.33789,6.94709 -14.66666,15.06204 -15.55733,15.15795 -19.35266,17.41889 -29.14322,17.36114 -2.56667,-0.0151 -6.87604,-1.0618 -9.57638,-2.3259 z m 23.11024,-261.739 c 4.1632,-2.22808 6.46614,-9.48266 6.46614,-20.36923 0,-19.60415 6.70857,-47.06307 16.70233,-68.36449 8.61187,-18.35597 15.86982,-29.67582 28.95455,-45.15895 33.50001,-39.6405 80.12799,-63.32605 132.33615,-67.22259 16.36535,-1.22143 19.99755,-2.6888 22.05007,-8.90801 1.67257,-5.06794 0.0492,-10.05296 -4.25562,-13.06818 -8.14779,-5.70694 -51.26516,0.40309 -81.78748,11.58985 -55.79688,20.45016 -105.27225,70.18767 -125.09341,125.75621 -9.2414,25.90824 -16.61669,71.5624 -12.9793,80.34385 2.51709,6.07679 11.30642,8.77328 17.60657,5.40154 z m 361.79948,54.86903 c -6.33317,-1.52838 -9.81692,-3.87342 -11.9862,-8.06836 -4.29369,-8.30307 -1.38956,-18.12094 6.4623,-21.84689 5.85445,-2.77812 8.22515,-2.71082 15.14351,0.4299 6.18526,2.80791 7.67668,5.91912 7.53807,15.72496 -0.0868,6.13716 -2.64526,9.97572 -8.75499,13.13518 -1.98198,1.02492 -3.7834,1.80208 -4.00315,1.72701 -0.21975,-0.0751 -2.19954,-0.57087 -4.39954,-1.1018 z m 127.23415,-39.76171 c -0.0545,-0.55 -0.20455,-11.94987 -0.33333,-25.33304 l -0.23415,-24.33304 12.10474,-3e-4 c 11.15853,-2.6e-4 12.56556,0.30532 18,3.90932 3.24239,2.15028 6.93112,5.66893 8.19718,7.81921 2.92755,4.97218 3.90525,14.74236 2.12168,21.20192 -1.8031,6.53029 -9.76331,14.39135 -16.45366,16.24875 -5.98062,1.66035 -23.25044,2.01986 -23.40246,0.48718 z M 591.28203,483.90313 c -9.63248,-3.8297 -13.96068,-13.30419 -9.94428,-21.76813 3.80735,-8.02339 13.55125,-11.07777 21.77427,-6.82548 5.26763,2.724 6.86462,5.08924 7.60966,11.27039 0.8711,7.22696 -2.12868,12.76119 -8.74734,16.13778 -5.89401,3.00689 -6.06367,3.0257 -10.69231,1.18544 z"/></svg>