<svg xmlns="http://www.w3.org/2000/svg" viewBox="0 0 981.8006 729.26538" fill="currentColor"><path d="m 503.2318,711.24314 0.35418,-20.25651 h 19.93498 19.93498 l 0.35419,20.25651 0.35419,20.25651 H 523.52096 502.8776 Z m 132.18226,-27.33022 v -6.4994 l 18.97038,0.35592 18.97039,0.35591 v 5.78757 5.78758 l -18.97039,0.35591 -18.97038,0.35592 z m -90.65493,-9.32442 c -0.37124,-1.59158 -0.81634,-10.41763 -0.98909,-19.61345 l -0.3141,-16.71965 -8.41576,-0.72454 c -4.62866,-0.3985 -9.11403,-1.15611 -9.96749,-1.68357 -1.74206,-1.07664 -2.14368,-11.86471 -0.47999,-12.89293 0.58946,-0.36429 11.15178,-1.04432 23.47183,-1.51115 26.76632,-1.01424 28.18766,-1.54933 28.18766,-10.61198 0,-3.37907 -0.69451,-6.83827 -1.54335,-7.68712 -1.08189,-1.08189 -8.22143,-1.54335 -23.87791,-1.54335 -12.93626,0 -23.38138,-0.56024 -24.82226,-1.33138 -2.4065,-1.28791 -2.48771,-3.34728 -2.48771,-63.08412 0,-50.6558 0.32605,-62.37684 1.81437,-65.22573 3.5338,-6.76422 8.83436,-10.28241 21.66824,-14.38201 67.19582,-21.46486 118.78312,-77.24559 132.16417,-142.90757 9.39058,-46.08032 3.80592,-85.25586 -18.10984,-127.03767 -26.19244,-49.93524 -76.05036,-87.21822 -132.6877,-99.221834 -40.30643,-8.54248 -78.38011,-4.92188 -118.02847,11.22381 -39.28808,15.998994 -74.77423,47.722534 -95.73338,85.582694 l -4.80595,8.68136 h -26.03073 c -25.5467,0 -26.08274,0.0553 -28.82719,2.97668 -2.99733,3.19052 -3.56886,7.32428 -1.53746,11.12 2.40754,4.49853 8.52547,5.30439 38.84586,5.11681 16.04501,-0.0993 29.7905,0.2013 30.54553,0.66793 1.87582,1.15932 1.74115,12.67507 -0.17058,14.5868 -0.98722,0.98722 -6.01722,1.54335 -13.95902,1.54335 h -12.41569 l -2.33015,13.82588 c -2.35031,13.94546 -3.12842,43.20966 -1.42772,53.69582 5.42207,33.43144 15.64215,60.28359 31.88953,83.78625 8.50908,12.30881 26.84722,31.697 39.72833,42.00315 18.39551,14.71823 50.24832,31.5296 67.80574,35.78672 7.16428,1.73711 13.68959,6.26692 17.1114,11.87855 2.29327,3.76088 2.45827,6.98217 2.46276,48.08081 0.005,42.33842 -0.0952,44.1498 -2.56745,46.62213 -2.43112,2.43111 -4.28709,2.57225 -33.82516,2.57225 -22.59297,0 -31.68055,-0.42765 -32.79625,-1.54335 -1.14528,-1.14529 -1.54335,-13.93296 -1.54335,-49.57978 0,-40.4218 -0.30926,-48.63448 -1.95097,-51.80917 -4.12332,-7.97365 0.11935,-7.67173 -108.2706,-7.70491 l -98.77417,-0.0302 -18.64885,-17.84514 -18.64885,-17.84514 -30.86706,0.45793 c -16.97688,0.25185 -31.49159,0.48254 -32.25488,0.51265 -0.7633,0.0301 -2.72805,2.91621 -4.36613,6.41356 -5.861128,12.51375 -15.583977,18.58943 -29.28903,18.30229 -12.257297,-0.2568 -22.216812,-6.7056 -27.9709345,-18.11125 -2.46732,-4.89065 -2.836953,-18.15889 -0.665018,-23.87151 6.1310605,-16.12593 27.2446975,-24.0525 42.9209595,-16.11357 3.437891,1.74105 7.283104,4.47803 8.544923,6.08217 l 2.29422,2.91662 h 39.90771 39.90772 l 4.27858,3.50675 c 2.35323,1.92871 14.84179,13.50386 27.75233,25.72255 l 23.47374,22.21581 h 29.57903 c 19.67322,0 29.57903,-0.44919 29.57903,-1.34132 0,-0.73772 -2.26667,-4.35495 -5.03704,-8.03829 -12.30033,-16.35385 -27.44149,-44.14753 -37.44671,-68.73857 l -4.31134,-10.5965 -52.80551,-0.33559 -52.80552,-0.3356 v -6.43064 -6.43064 l 50.48051,-0.33646 c 27.76428,-0.18505 50.45598,-0.76381 50.42601,-1.28613 -0.03,-0.52231 -0.79777,-4.13283 -1.70623,-8.02336 l -1.65172,-7.0737 -39.99162,0.37025 -39.99163,0.37025 -12.36897,-11.62387 -12.36897,-11.62387 -20.85012,6.3e-4 -20.850117,6.3e-4 -5.419633,6.2933 c -5.21962,6.06104 -13.51886,10.4251 -19.825657,10.4251 -18.269327,0 -32.5744225,-15.17899 -30.06647448,-31.90322 1.12842298,-7.5248 3.13686598,-11.38578 8.57991198,-16.49377 8.0052825,-7.51249 15.9476735,-9.50918 27.1426425,-6.82355 5.3702,1.2883 8.036767,2.97421 13.411456,8.47929 l 6.708514,6.8713 h 24.484417 24.48442 l 9.97564,8.82484 c 5.48661,4.85365 11.07818,10.06247 12.42572,11.57515 2.38628,2.6787 3.33645,2.7503 36.50138,2.7503 h 34.05132 l -0.79718,-4.82298 c -0.43845,-2.65263 -0.80356,-8.13649 -0.81134,-12.18635 l -0.0142,-7.36338 -20.89957,-0.35339 c -20.72321,-0.3504 -20.90312,-0.3784 -21.31983,-3.31796 -0.86186,-6.07962 1.1594,-6.68138 22.4419,-6.68138 h 19.7775 v -7.0737 c 0,-4.76464 0.5248,-7.09629 1.60766,-7.1429 0.88422,-0.0381 11.73592,-0.36974 24.1149,-0.73708 25.3467,-0.75215 27.02317,-1.3336 26.98899,-9.36055 -0.0103,-2.543 -0.56552,-5.48697 -1.23262,-6.54215 -1.35293,-2.13996 -15.13651,-3.56699 -36.28928,-3.75708 l -12.46212,-0.11203 -0.39916,-4.82297 -0.39917,-4.82298 -8.22383,-0.38772 -8.22382,-0.38772 0.78458,-10.17413 c 0.56491,-7.3256 0.34678,-10.44616 -0.77907,-11.14572 -0.86001,-0.53436 -7.92998,-1.27972 -15.71105,-1.65635 l -14.14741,-0.68479 v -9.64595 -9.64596 l 28.25638,-0.34741 c 15.541,-0.19105 28.74268,-0.83369 29.33705,-1.42806 1.25357,-1.25358 12.50053,-25.94452 12.50053,-27.44296 0,-0.55306 -7.56189,-1.00556 -16.80421,-1.00556 -9.24232,0 -17.92368,-0.59911 -19.29192,-1.33137 -2.05808,-1.10145 -2.4877,-2.7401 -2.4877,-9.48848 0,-5.38025 0.60632,-8.6603 1.78107,-9.63526 1.24552,-1.03369 17.19794,-1.6742 53.05276,-2.13016 49.91825,-0.6348 51.33111,-0.72252 53.52242,-3.32325 3.14098,-3.72784 2.82698,-9.1133 -0.72596,-12.45112 -2.73177,-2.56635 -4.31281,-2.79644 -19.216,-2.79644 -8.93164,0 -16.57982,-0.55091 -16.99596,-1.22424 -0.77752,-1.25804 7.19431,-9.61855 14.98556,-15.716204 3.20106,-2.50524 4.37388,-4.42154 4.32927,-7.0737 l -0.0612,-3.6376 -37.2977,-0.64307 -37.2977,-0.64306 -0.39587,-4.76755 -0.39586,-4.76753 9.89537,-0.37698 9.89535,-0.37696 -0.24693,-13.09909 c -0.22432,-11.90002 -0.0129,-13.224492 2.31263,-14.468936 1.59306,-0.852574 13.48399,-1.369842 31.49013,-1.369842 32.9236,0 33.59048,0.184907 32.19271,8.926078 -1.38775,8.67848 -2.39943,8.53355 56.91337,8.15331 28.8994,-0.18528 53.82062,-0.6359 55.38047,-1.00139 3.66058,-0.85769 6.0091,-8.46105 3.98537,-12.902651 -2.31925,-5.090211 -7.14873,-5.747602 -42.22442,-5.747602 -24.93917,0 -33.40183,-0.395998 -34.35619,-1.607659 -2.47428,-3.141367 -2.87071,-8.16093 -0.87011,-11.017188 1.87185,-2.672444 2.89094,-2.808684 21.00938,-2.808684 18.26967,0 19.42603,-0.158322 28.50718,-3.903088 64.04951,-26.411891 143.41172,-29.058369 208.88732,-6.965719 62.61359,21.126948 114.09006,60.459461 150.31588,114.854455 22.91231,34.40407 35.97762,66.20471 43.14342,105.01009 3.6022,19.50716 3.95686,22.90261 4.80268,45.97906 l 0.74246,20.25651 h -18.10452 c -16.96827,0 -18.26913,0.17666 -20.7269,2.81476 -3.01336,3.23446 -3.64074,12.74476 -0.9861,14.94792 0.89994,0.74688 9.55032,1.76845 19.22307,2.27016 l 17.58679,0.91218 -0.7026,3.99642 c -0.38642,2.19804 -1.22034,6.02208 -1.85317,8.49787 -0.63281,2.4758 -1.15379,4.9659 -1.15773,5.53357 -0.004,0.56766 11.97982,0.93504 26.63058,0.81641 14.65076,-0.11859 26.79974,0.28505 26.99771,0.89708 0.80877,2.50016 -7.11801,4.32898 -18.84489,4.34778 -6.75584,0.0103 -12.9469,0.4449 -13.7579,0.9646 -0.81101,0.5197 -2.13551,3.40462 -2.94336,6.41095 l -1.46881,5.46604 h -10.8825 c -6.3976,0 -10.88252,0.53004 -10.88252,1.28613 0,0.76567 -4.86371,1.28612 -12.01887,1.28612 -13.34242,0 -15.23914,0.96807 -16.86148,8.60593 -1.47823,6.95937 0.61827,8.94708 10.25235,9.72041 4.66569,0.37451 8.85507,1.05296 9.30975,1.50764 0.45469,0.45469 -1.03677,4.60562 -3.31436,9.22433 -2.27758,4.6187 -3.80537,8.94078 -3.39508,9.60464 0.41028,0.66385 8.52504,1.20701 18.03279,1.20701 h 17.28682 v 3.20012 c 0,2.73895 -0.74138,3.31867 -5.14451,4.02276 -3.8771,0.61998 -5.14451,1.41586 -5.14451,3.23052 0,2.23821 -1.2664,2.40787 -17.97276,2.40787 h -17.97276 l -1.87065,3.61744 c -2.87651,5.56256 -22.44256,32.7583 -25.34937,35.23425 -2.33935,1.9926 -7.56244,2.20448 -56.12473,2.27675 -48.9245,0.0728 -53.88473,0.27727 -57.478,2.36927 -7.25814,4.22571 -7.25469,4.19445 -7.17516,65.11487 0.0401,30.78076 0.60556,57.36556 1.25637,59.07733 0.65082,1.71176 3.16143,4.6211 5.57916,6.46519 l 4.39585,3.35288 36.51858,0.51177 c 20.08522,0.28147 49.64397,0.56582 65.68611,0.63188 33.24216,0.13689 33.20966,0.1272 33.20966,9.94249 0,10.44194 -0.52252,10.75566 -17.91343,10.75566 -12.36973,0 -15.39054,0.36444 -15.99099,1.92919 -0.62632,1.63219 -5.00364,1.92919 -28.43241,1.92919 -25.97727,0 -27.85139,0.15929 -30.26436,2.57226 -2.80668,2.80668 -3.33285,7.75081 -1.24088,11.6597 1.17786,2.20083 2.79109,2.4877 13.98993,2.4877 13.95906,0 16.4941,1.19092 15.02181,7.057 -0.79015,3.14819 -1.10721,3.23202 -12.22423,3.23202 -11.94356,0 -13.48596,0.75503 -12.22662,5.98506 1.30849,5.43416 -1.01013,6.22835 -18.44733,6.31862 -9.07917,0.0469 -17.20294,0.51524 -18.05286,1.0405 -0.88489,0.5469 -1.54527,3.83562 -1.54527,7.69561 0,3.70732 -0.6945,7.43508 -1.54335,8.28392 -1.11898,1.11899 -10.48364,1.54336 -34.05788,1.54336 H 545.43413 Z M 44.394316,430.00405 c 7.927917,-3.3125 10.608914,-12.94964 5.77735,-20.76729 -6.137633,-9.9309 -20.434446,-8.32267 -25.15645,2.82981 -2.931973,6.92478 0.49539,14.77866 7.847564,17.98289 4.973108,2.16738 6.247597,2.16235 11.531536,-0.0454 z M 36.350617,305.92303 c 11.575367,-10.3426 -1.816771,-27.34113 -14.825296,-18.81761 -3.163244,2.07263 -5.609098,8.22782 -4.869845,12.25535 0.475186,2.58893 5.306035,7.74461 8.49104,9.06202 4.50281,1.86249 6.927302,1.32156 11.204101,-2.49976 z M 678.15257,639.92472 c 0.36208,-1.09544 3.54494,-1.80106 9.25837,-2.05253 6.68806,-0.29437 8.57866,0.004 8.15482,1.28613 -0.36208,1.09545 -3.54494,1.80107 -9.25837,2.05253 -6.68806,0.29437 -8.57866,-0.004 -8.15482,-1.28613 z M 324.42841,632.2106 c -2.00253,-2.00253 -2.00253,-14.20269 0,-16.20521 1.0314,-1.0314 6.73861,-1.54336 17.20525,-1.54336 16.95874,0 18.87063,-0.71668 18.87063,-7.0737 0,-5.17842 -2.4658,-6.91803 -10.39589,-7.33424 l -7.28837,-0.38252 v -4.50145 -4.50145 l 40.24168,-0.33992 c 26.28123,-0.222 41.11661,0.12836 42.76374,1.00984 2.12377,1.13662 2.52207,2.72378 2.52207,10.05019 0,5.05215 -0.64715,9.34757 -1.54335,10.24377 -1.01629,1.01629 -6.4528,1.54336 -15.91913,1.54336 -16.88906,0 -17.92658,0.62351 -17.40452,10.45958 0.55344,10.42724 1.62542,10.11846 -35.1272,10.11846 -23.47082,0 -32.80626,-0.42471 -33.92491,-1.54335 z m -69.18345,-18.23639 c -0.38825,-1.01176 -0.52044,-3.77562 -0.29376,-6.14191 l 0.41216,-4.30235 h 20.57804 20.57804 v 5.78757 5.78758 l -20.28429,0.35433 c -16.63966,0.29066 -20.41111,0.0238 -20.99019,-1.48522 z M 224.74561,595.6338 c -3.24211,-3.24213 6.66102,-4.09541 13.4289,-1.15708 l 4.32757,1.87885 -8.467,0.0503 c -4.65686,0.0276 -8.83711,-0.31977 -9.28947,-0.77212 z m 402.64951,-27.11025 c -8.61219,-0.92345 -8.70072,-1.36841 -8.70072,-43.73356 0,-35.93975 0.11717,-37.77173 2.57226,-40.22684 2.52963,-2.52964 4.28709,-2.57226 106.07588,-2.57226 h 103.50361 l 2.1105,3.22101 c 1.74544,2.6639 1.95306,5.11085 1.20032,14.1474 l -0.91017,10.9264 h 12.81926 c 9.91621,0 13.18767,0.44392 14.44613,1.96028 1.88218,2.26789 1.91871,2.22236 -3.52,4.38676 -5.79879,2.30768 -7.31808,4.41948 -5.55269,7.71815 1.2864,2.40366 2.60726,2.65447 13.97942,2.65447 8.05313,0 13.11251,0.5537 14.10216,1.54335 2.06189,2.0619 2.01122,14.72169 -0.0643,16.065 -0.88421,0.57227 -11.73591,1.32988 -24.11489,1.68356 l -22.50723,0.64307 -0.64307,8.63807 c -1.08538,14.57969 9.46021,13.20842 -102.6142,13.34316 -53.55825,0.0644 -99.54027,-0.11472 -102.18226,-0.39802 z m 53.03341,-43.44738 v -18.64885 h -18.64885 -18.64885 v 18.64885 18.64885 h 18.64885 18.64885 z m -535.55782,39.1282 c -2.9277,-3.47937 -3.32964,-5.10955 -3.32964,-13.50434 v -9.54727 h -10.08969 c -11.4084,0 -14.61185,-1.88299 -13.12816,-7.71676 0.75779,-2.97954 1.4551,-3.24332 9.50901,-3.59706 9.37435,-0.41175 10.78185,-1.51973 9.32158,-7.33791 l -0.80626,-3.21244 h -21.76377 c -11.97007,0 -22.02702,-0.43407 -22.3488,-0.96459 -0.32176,-0.53053 -0.78999,-3.56901 -1.0405,-6.75217 l -0.45546,-5.78758 25.07949,-0.64306 25.07949,-0.64306 0.64307,-8.55003 c 0.44561,-5.92485 1.39531,-9.38012 3.09312,-11.25361 l 2.45006,-2.7036 h 102.61793 102.61795 l 2.00213,2.85843 c 1.70139,2.42909 2.00211,8.51423 2.00211,40.51302 0,35.93976 -0.11716,37.77173 -2.57225,40.22685 -2.5288,2.52879 -4.28709,2.57225 -104.06201,2.57225 H 148.20036 Z m 187.01724,-39.1282 V 506.42732 H 313.2391 294.59025 v 18.64885 18.64885 h 18.64885 18.64885 z m 550.46261,-34.72545 v -14.79047 h 17.36272 17.36273 v 14.79047 14.79047 h -17.36273 -17.36272 z m -825.372391,2.32875 c 1.237898,-0.32348 2.250723,-1.43066 2.250723,-2.46038 0,-1.56266 2.815038,-1.81289 17.025308,-1.51336 15.02497,0.3167 17.07605,0.6233 17.45704,2.60959 0.39696,2.06954 -1.15471,2.23871 -19.27605,2.10153 -10.83925,-0.0821 -18.694919,-0.41388 -17.457021,-0.73738 z M 745.11388,454.01762 c 3.45834,-3.45934 3.94356,-3.55095 22.13847,-4.17992 l 18.60264,-0.64306 29.79127,-28.93787 c 16.3852,-15.91583 31.29631,-29.94688 33.13579,-31.18012 2.98809,-2.0033 7.31955,-2.24315 40.6446,-2.25072 l 37.3001,-0.009 4.49905,-6.02808 c 9.03442,-12.1048 23.73129,-15.48145 36.60802,-8.41081 13.0168,7.14751 18.1953,23.98217 11.3649,36.94613 -9.4062,17.85281 -34.41915,20.89936 -47.17047,5.74528 -1.8574,-2.20686 -3.3771,-4.54727 -3.3771,-5.20038 0,-0.69552 -13.91165,-1.18744 -33.58139,-1.18744 h -33.58139 l -25.4052,24.43642 -25.4052,24.43643 h -34.54996 -34.54997 z m 213.04801,-45.336 c 0.55306,0 2.53138,-1.52581 4.39627,-3.3907 7.35856,-7.35861 1.86766,-21.0858 -8.40706,-21.01712 -9.64319,0.0644 -15.91837,11.43628 -10.54447,19.1086 2.36115,3.37102 9.24259,6.79834 11.83686,5.89539 0.94207,-0.3279 2.16535,-0.59617 2.7184,-0.59617 z m -94.20491,39.05346 c -2.5129,-2.5129 0.34592,-3.09486 13.5706,-2.76248 8.5461,0.2148 14.46894,0.89013 14.46894,1.64978 0,1.46643 -26.62907,2.52315 -28.03954,1.1127 z M 761.15607,432.18595 c 2.31162,-0.28624 5.78416,-0.28034 7.71676,0.0131 1.9326,0.29347 0.0413,0.52766 -4.20294,0.52044 -4.24423,-0.008 -5.82544,-0.24732 -3.51382,-0.53356 z m -591.3202,-49.22688 c 0,-0.75725 4.52675,-1.28613 11.00799,-1.28613 7.01115,0 10.71939,0.46697 10.21312,1.28613 -0.43718,0.70737 -5.39078,1.28612 -11.00799,1.28612 -5.95133,0 -10.21312,-0.53668 -10.21312,-1.28612 z m -96.23345,-3.67106 c -1.02181,-0.66005 -1.53629,-2.84683 -1.28612,-5.4667 l 0.41693,-4.36658 h 18.00579 18.00579 v 5.14451 5.14451 l -16.71966,0.3222 c -9.19581,0.1772 -17.48604,-0.17287 -18.42273,-0.77794 z m 723.10602,-1.95147 c -0.38491,-1.00306 -0.51657,-4.05494 -0.29259,-6.78197 l 0.40722,-4.95823 21.6941,-0.35331 c 15.32845,-0.24965 22.2344,0.0952 23.5355,1.17492 1.188,0.98594 1.70472,3.3932 1.45621,6.78395 l -0.38521,5.25572 -22.8577,0.35133 c -18.77825,0.28862 -22.98259,0.0258 -23.55753,-1.47241 z M 78.52081,326.31069 c 0,-2.42798 0.66896,-2.60167 8.66807,-2.25072 7.05183,0.30939 8.74808,0.79996 9.0972,2.63102 0.37596,1.97186 -0.69801,2.25072 -8.66808,2.25072 -8.30749,0 -9.09719,-0.22839 -9.09719,-2.63102 z m 734.89586,-1.73518 c -0.37863,-0.98666 -0.50514,-4.02514 -0.28116,-6.75217 l 0.40722,-4.95823 h 22.50724 22.50723 l 0.42195,3.69226 c 0.23208,2.03074 0.0764,5.06922 -0.34603,6.75217 l -0.76799,3.05991 h -21.88004 c -17.52931,0 -22.01691,-0.35672 -22.56842,-1.79394 z M 138.96881,94.178596 v -14.91215 l 16.39813,0.40479 16.39812,0.40478 v 14.1474 14.147414 l -16.39812,0.35996 -16.39813,0.35995 z"/></svg>