<svg xmlns="http://www.w3.org/2000/svg" viewBox="0 0 994.66669 1189.3333" fill="currentColor"><path d="m 479.89739,1173.7027 c -9.16667,-5.5503 -24.46667,-14.7445 -34,-20.4316 -9.53334,-5.6871 -30.23334,-18.0988 -46.00001,-27.5816 -36.02575,-21.6675 -106.44515,-63.7194 -126.66666,-75.6407 -8.43334,-4.9717 -17.43334,-10.3862 -20,-12.0322 -2.56667,-1.6459 -18.16667,-10.9922 -34.66667,-20.7696 -16.5,-9.7774 -36.3,-21.60535 -44,-26.28432 C 156.20885,979.80902 89.267063,939.75728 67.230714,926.74441 57.697381,921.1148 38.947379,909.96916 25.564046,901.97633 L 1.2307127,887.4439 V 596.49501 305.54612 L 18.230713,295.23615 c 52.91279,-32.08996 49.195022,-29.27741 50.978325,-38.56587 2.38759,-12.43593 12.626749,-45.44809 18.002527,-58.04211 6.735747,-15.78006 19.552165,-39.7096 28.130725,-52.52289 3.97197,-5.93268 7.22176,-10.36425 7.22176,-9.84793 0,0.51633 -1.26833,4.11099 -2.81851,7.98813 -5.16121,12.90869 -11.63676,36.68312 -14.69888,53.96566 -4.02828,22.7355 -4.38511,69.9308 -0.67859,89.75036 9.56353,51.13821 31.80877,98.57308 66.9055,142.66666 15.29323,19.21355 38.14189,43.9559 50.63819,54.83506 6.15345,5.35714 10.95586,9.97247 10.67203,10.25631 -1.57649,1.57649 -44.19492,-23.65894 -68.01974,-40.27618 -43.56264,-30.38389 -76.972789,-66.02594 -98.628741,-105.21744 -2.756155,-4.98791 -5.301884,-8.77823 -5.657175,-8.42294 -0.93878,0.93878 1.939669,25.89564 4.36963,37.88576 3.167866,15.63116 10.709425,36.67398 18.897905,52.72984 20.876501,40.93437 57.575661,74.70787 114.351711,105.23558 14.52871,7.81189 23.42677,12.08945 55.878,26.8622 5.79957,2.64013 10.25468,5.09023 9.90025,5.44466 -0.80556,0.80556 -42.38549,-6.43184 -58.09788,-10.11252 -48.15241,-11.27986 -86.22709,-26.67044 -117.185102,-47.36864 -7.073003,-4.72894 -13.083433,-8.37464 -13.356512,-8.10156 -0.273078,0.27307 3.258988,6.7449 7.849036,14.38182 39.315088,65.41248 96.480768,96.16913 205.678878,110.66066 6.6,0.87588 12.82659,2.02257 13.83686,2.54819 1.85188,0.96349 -15.88949,3.99167 -40.50353,6.91333 -20.13689,2.39022 -71.74044,1.93789 -87.8561,-0.77011 -7.25418,-1.21896 -13.41452,-1.99119 -13.68964,-1.71608 -1.24989,1.2499 24.21658,17.80591 36.21241,23.54206 29.77489,14.2377 57.24456,20.20792 104.38616,22.68715 13.72094,0.7216 27.04717,1.34694 29.61384,1.38966 4.5433,0.0756 4.42989,0.1992 -4.29032,4.67545 -21.24637,10.90616 -41.02279,16.57267 -69.04301,19.7828 l -15.33334,1.75666 6.66667,2.96492 c 18.79565,8.35912 37.30859,11.68737 74.68296,13.42649 28.38546,1.32084 39.40908,3.24289 50.52036,8.80858 16.4504,8.2401 27.29003,20.09738 32.17737,35.19826 1.30537,4.03334 2.66288,8.23334 3.01669,9.33334 1.44344,4.48761 3.13931,-8.52161 3.85156,-29.54575 0.59456,-17.55015 0.27,-25.10634 -1.54631,-35.99999 -9.38846,-56.30917 -32.64782,-103.14704 -76.75088,-154.55488 -5.30013,-6.17798 -23.94552,-25.99428 -41.43422,-44.03621 -31.46116,-32.45641 -43.70649,-46.40695 -56.64219,-64.52982 -14.09989,-19.75391 -13.65994,-20.66621 2.2289,-4.62184 18.14505,18.32265 31.91621,30.19101 71.89576,61.96172 56.22287,44.67884 84.86928,77.69823 111.62077,128.66011 21.21357,40.41207 39.88394,97.94565 48.95464,150.8559 3.55085,20.71248 7.47209,56.0838 7.35339,66.33088 -0.0676,5.83634 -0.35903,5.33907 -5.77449,-9.85346 -9.53142,-26.73945 -27.3931,-66 -30.02685,-66 -0.51475,0 -2.31767,4.35 -4.0065,9.66667 -9.82265,30.92302 -36.23934,69.68692 -68.29709,100.21923 -13.75108,13.09675 -31.39858,28.50501 -41.82669,36.51941 l -3.99718,3.07199 17.33333,-0.59358 c 19.12281,-0.65487 34.07869,-4.18641 48.44815,-11.44008 9.93133,-5.01332 26.73187,-17.51134 38.98052,-28.99783 5.34441,-5.01187 9.25824,-7.91248 8.69739,-6.44581 -0.56084,1.46666 -3.33313,9.11791 -6.16064,17.00276 -10.59835,29.5548 -31.16077,63.01781 -50.06434,81.47405 l -7.83638,7.65095 5.96765,-0.91311 c 20.00609,-3.06113 38.77442,-10.8359 54.25722,-22.47604 8.77694,-6.5986 21.13399,-20.98928 28.56806,-33.26958 2.46164,-4.06637 4.77571,-7.41132 5.14238,-7.43322 0.36666,-0.0219 0.47738,9.11109 0.24602,20.29552 -0.58098,28.08717 1.68373,42.98327 9.98389,65.66864 3.37629,9.2278 19.01856,39.3333 20.43688,39.3333 1.2183,0 16.6934,-29.3801 20.36651,-38.6666 8.11967,-20.52857 11.87762,-46.91825 10.72765,-75.33334 -0.40621,-10.03723 -0.20829,-11.58797 1.21003,-9.48091 0.93263,1.38551 3.94881,5.96584 6.70262,10.17852 18.36921,28.1005 48.37924,47.36192 80.20464,51.47796 l 6.78843,0.87796 -10.07168,-9.8601 c -15.28616,-14.96505 -31.44999,-38.52398 -40.82075,-59.49664 -3.46922,-7.76445 -13.77424,-35.72512 -13.77424,-37.37373 0,-0.48921 2.85,1.83553 6.33333,5.16611 31.02065,29.66026 59.14587,42.60949 92.17097,42.43675 l 14.16237,-0.0741 -3.90065,-2.92593 c -17.26304,-12.94923 -58.32871,-51.36046 -65.84898,-61.59259 -1.61693,-2.2 -5.72206,-7.6 -9.1225,-11.99999 -15.53445,-20.10076 -29.44245,-44.97862 -35.22023,-63 -1.70456,-5.31667 -3.43752,-9.66667 -3.85103,-9.66667 -1.93301,0 -23.71396,48.79543 -31.54368,70.66667 l -4.53456,12.66666 0.75801,-14 c 2.99026,-55.22842 18.5161,-123.92923 39.66313,-175.50678 13.88587,-33.86762 33.22346,-67.59032 52.84963,-92.16416 21.23513,-26.58841 42.22542,-46.16188 88.21585,-82.26136 22.7884,-17.8874 41.35926,-34.25874 59.01621,-52.02635 15.32303,-15.41907 15.6883,-15.68958 10.80271,-8 -15.9186,25.05477 -31.94644,43.9418 -71.24868,83.95867 -35.30463,35.94658 -48.3163,51.31836 -66.02421,78 -32.67686,49.23631 -48.56914,96.4891 -48.65497,144.66666 -0.027,15.17283 2.32298,36.66666 4.00892,36.66666 0.52848,0 1.33434,-2.25 1.7908,-5 2.10521,-12.68314 11.34319,-26.35681 23.62919,-34.97495 13.63765,-9.56626 34.37507,-14.69171 59.44224,-14.69171 27.73303,0 52.73107,-4.0987 71.69897,-11.75583 l 12.07383,-4.87407 -16.32494,-1.71886 c -23.13958,-2.43636 -43.61134,-7.94541 -61.78624,-16.62698 l -15.22216,-7.27114 19.33334,-0.93765 c 55.46052,-2.6898 86.21769,-8.38826 115.24378,-21.35149 12.94722,-5.78231 43.42438,-26.13064 39.13775,-26.13064 -1.05151,0 -8.16752,0.96966 -15.81335,2.15479 -17.09587,2.64994 -66.49098,3.09618 -85.90151,0.77605 -19.79,-2.36548 -40.66667,-5.87173 -40.66667,-6.82998 0,-0.46304 7.95,-1.85437 17.66666,-3.09184 22.95736,-2.92374 54.6581,-9.34505 74.26738,-15.04363 60.02468,-17.44354 99.3468,-46.71977 128.55403,-95.71148 4.28864,-7.19368 7.56711,-13.30984 7.28549,-13.59146 -0.28162,-0.28162 -6.49588,3.43362 -13.80946,8.2561 -15.61202,10.29433 -48.25195,26.50156 -65.29743,32.42319 -15.08169,5.2394 -36.91186,11.21397 -56.37182,15.42807 -20.76821,4.49741 -52.6282,10.00796 -53.40001,9.23614 -0.35069,-0.35069 1.70451,-1.61056 4.5671,-2.79973 31.31191,-13.00741 70.72505,-33.37935 93.20473,-48.17584 49.27568,-32.43405 77.43872,-65.80162 93.71234,-111.03037 7.26084,-20.17983 12.22145,-44.48298 12.24683,-59.99999 l 0.012,-7.33334 -7.09662,12.10333 c -25.66473,43.77138 -57.64038,76.69607 -104.82118,107.93226 -20.9233,13.85234 -59.64824,36.14732 -60.79453,35.00102 -0.34143,-0.34142 2.96102,-3.43479 7.33877,-6.87414 17.20828,-13.5196 54.96573,-56.85536 72.83596,-83.59682 11.10605,-16.61937 26.84326,-47.16351 34.46691,-66.89634 10.45893,-27.07162 15.39744,-51.21358 17.53154,-85.70329 1.91404,-30.93306 -6.21668,-77.55637 -18.67918,-107.1105 -1.96623,-4.6628 -3.36708,-8.68571 -3.113,-8.93979 0.65194,-0.65194 12.82606,18.13982 20.40564,31.49777 13.09243,23.0736 25.35408,54.49722 31.18511,79.91984 4.00943,17.48065 3.72944,16.82579 8.4952,19.86925 8.97759,5.73319 28.01831,17.46408 28.3464,17.46408 0.18883,0 7.44983,4.4209 16.13557,9.82422 l 15.79224,9.82422 0.33632,291.34681 0.33633,291.34681 -21.00299,12.42086 c -11.55165,6.83147 -27.30299,16.22779 -35.00299,20.88072 -22.16126,13.39152 -61.70832,37.05537 -81.33334,48.66757 -9.9,5.85787 -29.7,17.67902 -44,26.26921 -38.19702,22.94548 -77.93124,46.70708 -107.16486,64.08618 -14.18583,8.4334 -49.42703,29.5138 -78.31378,46.8454 -105.41895,63.2499 -129.00458,77.153 -130.74559,77.071 -0.97668,-0.046 -9.27578,-4.6248 -18.44244,-10.1751 z m 78.82017,-624.02509 c -13.53204,-27.09589 -17.56692,-39.17386 -18.45338,-55.23815 -0.68506,-12.41447 -0.55975,-13.18 3.65379,-22.3214 7.29084,-15.81765 21.90948,-27.24749 37.15927,-29.0536 3.75108,-0.44426 6.80022,-1.17417 6.77585,-1.62202 -0.15995,-2.94049 -8.26013,-11.78616 -13.16541,-14.37709 -6.43348,-3.39812 -19.49461,-4.2453 -27.97105,-1.81428 -3.5331,1.01327 -6.24509,0.69829 -12.65786,-1.47015 -13.58192,-4.59265 -25.14303,-1.41842 -50.7529,13.93476 -16.12249,9.66547 -24.41043,12.5455 -39.69449,13.79372 l -10.286,0.84004 2.60427,3.65736 c 3.56771,5.01039 13.9922,11.44561 21.6344,13.3553 3.48334,0.87045 6.33334,2.07085 6.33334,2.66757 0,3.17565 -8.47784,33.06609 -12.64949,44.59848 -10.19026,28.17066 -20.17195,51.33333 -22.1215,51.33333 -0.55942,0 -1.42731,-1.95 -1.92864,-4.33333 -1.23805,-5.88572 -9.82652,-24.15743 -15.58991,-33.16705 -5.61031,-8.77032 -19.93029,-23.51716 -31.0438,-31.96915 -4.4,-3.34627 -22.7,-15.26932 -40.66667,-26.49567 -61.6979,-38.55152 -81.04495,-52.90783 -108.66667,-80.63517 -58.87773,-59.10288 -89.60327,-121.96956 -98.10647,-200.73294 -1.56239,-14.47202 -1.84693,-55.25135 -0.40184,-57.58955 0.52932,-0.85646 2.33157,3.60051 4.005,9.90436 5.81997,21.92398 22.58872,62.35186 25.86242,62.35186 0.84762,0 22.93858,-12.82376 49.09101,-28.49724 98.68455,-59.14288 123.62642,-74.1502 126.21655,-75.94347 3.07007,-2.12556 101.05594,-61.175195 122.00001,-73.521377 7.7,-4.539024 19.53196,-11.654426 26.29326,-15.812004 6.76129,-4.1575774 12.67014,-7.5592321 13.13078,-7.5592321 0.46065,0 7.22868,4.1196141 15.04008,9.1546971 7.8114,5.035084 25.60254,15.957365 39.53588,24.271735 13.93333,8.31437 40.93333,24.50814 60,35.986155 19.06667,11.478015 58.06667,34.949256 86.66667,52.158296 28.6,17.20905 55.9,33.71265 60.66667,36.67466 29.50769,18.3361 72.68715,43.1094 74.15633,42.54562 4.44698,-1.70647 24.13515,-51.66219 26.71734,-67.79117 1.32322,-8.26513 2.82955,-5.68902 3.85222,6.58803 2.02474,24.30676 -3.71949,72.96984 -12.16406,103.04952 -15.30539,54.51809 -41.38373,97.87252 -85.89517,142.79812 -29.43573,29.70962 -46.62984,42.53766 -113.33333,84.55484 -17.23334,10.85544 -34.93334,22.47703 -39.33334,25.82574 -20.97917,15.96665 -37.19122,38.75964 -44.5019,62.56652 l -2.16477,7.04946 z"/></svg>